<?xml version="1.0" encoding="UTF-8"?>
<svg enable-background="new 0 0 400 400" version="1.1" viewBox="0 0 400 400" xmlns="http://www.w3.org/2000/svg">
 <path d="m34.091 202.29v-31.383l10.733-29.49 11.337-29.263 20.661-23.623 21.142-23.19 27.801-14.561 28.093-13.992 31.181-3.534 31.25-2.897 30.354 7.967 30.186 8.59 25.427 18.394 25.044 18.91 17.063 26.339 16.522 26.681 6.397 30.724 5.77 30.85-5.135 30.958-5.766 30.85-15.968 27.017-16.523 26.681-24.65 19.422-25.042 18.914-30.002 9.206-30.187 8.59-31.3-2.254-31.25-2.896-28.374-13.411-28.093-13.988-21.612-22.757-21.142-23.19-11.936-29.024-11.337-29.264-0.644-31.376zm156.41-3.804v2.199l0.045 2.196 0.793 2.048 0.836 2.03 1.479 1.623 1.515 1.594 1.965 0.98 1.987 0.938 4.379 0.361 2.113-0.603 2.1-0.646 1.754-1.323 1.726-1.359 2.273-3.758 0.403-2.16 0.359-2.167-0.404-2.16-0.447-2.149-1.155-1.867-1.195-1.847-1.753-1.323-1.781-1.287-2.111-0.603-2.125-0.556-2.188 0.202-2.184 0.249-1.967 0.977-1.945 1.021-1.48 1.622-1.446 1.655-1.546 4.113z" fill="none"/>
 <polygon points="106.19 142.43 97.076 138.9 97.698 137.29 98.834 135.99" fill="#56688B"/>
 <polygon points="133.68 111.65 126.46 105.06 127.62 103.78 129.15 102.98" fill="#56688B"/>
 <polygon points="170.44 92.873 166.08 84.117 167.62 83.349 169.34 83.154" fill="#56688B"/>
 <polygon points="211.49 88.643 210.59 78.903 212.31 78.744 213.98 79.184" fill="#56688B"/>
 <polygon points="251.3 99.526 253.98 90.121 255.64 90.594 257.03 91.604" fill="#56688B"/>
 <polygon points="284.49 124.06 290.38 116.26 291.76 117.3 292.7 118.74" fill="#56688B"/>
 <polygon points="306.58 158.92 314.89 153.78 315.8 155.24 316.15 156.93" fill="#56688B"/>
 <polygon points="314.58 199.41 324.19 197.62 324.5 199.31 324.22 201.01" fill="#56688B"/>
 <polygon points="307.41 240.06 317.02 241.86 316.7 243.55 315.83 245.03" fill="#56688B"/>
 <polygon points="286.04 275.37 294.36 280.52 293.45 281.98 292.1 283.05" fill="#56688B"/>
 <polygon points="253.37 300.58 259.26 308.38 257.88 309.42 256.24 309.93" fill="#56688B"/>
 <polygon points="213.79 312.28 216.46 321.69 214.81 322.16 213.09 322.03" fill="#56688B"/>
 <polygon points="172.66 308.89 171.75 318.63 170.04 318.47 168.48 317.73" fill="#56688B"/>
 <polygon points="135.52 290.88 131.17 299.63 129.62 298.86 128.43 297.61" fill="#56688B"/>
 <polygon points="107.41 260.66 100.18 267.25 99.02 265.98 98.363 264.38" fill="#56688B"/>
 <polygon points="92.103 222.34 82.985 225.87 82.363 224.26 82.327 222.54" fill="#56688B"/>
 <polygon points="91.68 181.06 81.902 181.06 81.902 179.34 82.491 177.72" fill="#56688B"/>
 <polygon points="135.41 160.11 133.01 166.3 108.87 156.94 112.91 146.5 120.29 138.06 139.78 155.1" fill="#56688B"/>
 <polygon points="154.54 138.68 150.06 143.59 130.93 126.15 138.48 117.87 148.41 112.67 160.42 135.6" fill="#56688B"/>
 <polygon points="180.12 125.62 174.17 128.58 162.63 105.4 172.67 100.41 183.8 99.14 186.72 124.86" fill="#56688B"/>
 <polygon points="208.69 122.67 202.08 123.28 199.69 97.503 210.85 96.472 221.69 99.316 215.11 124.36" fill="#56688B"/>
 <polygon points="236.4 130.25 230.01 128.43 237.1 103.53 247.87 106.59 256.95 113.16 241.78 134.14" fill="#56688B"/>
 <polygon points="259.5 147.32 254.2 143.32 269.8 122.66 278.74 129.41 284.84 138.82 263.11 152.9" fill="#56688B"/>
 <polygon points="274.87 171.58 271.37 165.94 293.38 152.31 299.28 161.84 301.57 172.81 276.22 178.09" fill="#56688B"/>
 <polygon points="280.43 199.76 279.21 193.24 304.66 188.48 306.72 199.5 304.89 210.55 279.35 206.31" fill="#56688B"/>
 <polygon points="275.45 228.05 276.67 221.52 302.12 226.28 300.06 237.3 294.35 246.94 272.06 233.77" fill="#56688B"/>
 <polygon points="260.58 252.63 264.07 246.98 286.09 260.61 280.18 270.14 271.38 277.07 255.36 256.74" fill="#56688B"/>
 <polygon points="237.83 270.17 243.14 266.17 258.74 286.83 249.79 293.58 239.08 296.87 231.48 272.12" fill="#56688B"/>
 <polygon points="210.29 278.32 216.68 276.5 223.76 301.4 212.98 304.47 201.81 303.66 203.66 277.84" fill="#56688B"/>
 <polygon points="181.66 275.96 188.27 276.57 185.88 302.35 174.73 301.32 164.6 296.53 175.66 273.12" fill="#56688B"/>
 <polygon points="155.82 263.42 161.76 266.38 150.22 289.56 140.19 284.56 132.48 276.44 151.25 258.61" fill="#56688B"/>
 <polygon points="136.25 242.39 140.72 247.3 121.59 264.74 114.04 256.46 109.78 246.1 133.73 236.25" fill="#56688B"/>
 <polygon points="125.6 215.72 128 221.91 103.86 231.26 99.811 220.81 99.58 209.61 125.46 209.08" fill="#56688B"/>
 <polygon points="125.31 186.99 125.31 193.64 99.416 193.64 99.416 182.43 103.25 171.9 127.58 180.76" fill="#56688B"/>
 <path d="m160.1 201v-7.382h2.773l-2.605-0.948 2.524-6.938 2.667-6.88 2.586 0.999-2.086-1.825 4.859-5.557 4.973-5.456 2.05 1.868-1.288-2.456 6.54-3.426 6.608-3.288 1.235 2.48-0.312-2.755 7.334-0.833 7.351-0.678 0.256 2.759 0.703-2.68 7.14 1.871 7.101 2.02-0.759 2.669 1.626-2.247 5.98 4.327 5.891 4.446-1.671 2.215 2.327-1.508 4.014 6.195 3.888 6.274-2.358 1.461 2.715-0.566 1.506 7.229 1.355 7.256-2.726 0.509 2.735 0.454-1.207 7.28-1.357 7.259-2.725-0.512 2.388 1.413-3.758 6.354-3.886 6.274-2.357-1.457 1.716 2.178-5.798 4.565-5.892 4.45-1.671-2.214 0.813 2.653-7.057 2.164-7.101 2.02-0.757-2.665-0.201 2.766-7.361-0.53-7.351-0.682 0.256-2.762-1.185 2.506-6.675-3.151-6.608-3.292 1.235-2.481-2.01 1.911-5.083-5.354-4.975-5.456 2.05-1.868-2.564 1.057-2.807-6.826-2.667-6.884 2.586-1.003-2.773 0.058-0.15-7.38zm30.409-2.51l-1e-3 2.199 0.047 2.196 0.793 2.048 0.835 2.03 2.993 3.217 3.952 1.918 4.377 0.361 2.113-0.603 2.102-0.646 1.752-1.323 1.726-1.359 1.157-1.868 1.118-1.89 0.403-2.16 0.359-2.167-0.404-2.16-0.447-2.149-2.351-3.71-1.755-1.327-1.779-1.287-4.236-1.158-2.188 0.202-2.184 0.249-1.965 0.977-1.947 1.021-1.48 1.622-1.446 1.655-0.793 2.048-0.751 2.064z" fill="#9B2F1D"/>
 <path d="m117.4 201.44c-0.701-2.142-2.719-3.692-5.094-3.692-2.421 0-4.468 1.601-5.137 3.797 0.714 2.182 2.793 3.739 5.214 3.689 2.376-0.046 4.359-1.637 5.017-3.794z"/>
 <path d="m122.82 170.72c0.121-2.254-1.201-4.425-3.415-5.283-2.257-0.876-4.744-0.122-6.163 1.685-0.121 2.293 1.255 4.496 3.529 5.322 2.232 0.815 4.658 0.046 6.049-1.724z"/>
 <path d="m138.97 144.03c0.923-2.059 0.478-4.562-1.278-6.163-1.789-1.63-4.379-1.825-6.354-0.653-0.941 2.092-0.454 4.645 1.367 6.239 1.788 1.566 4.325 1.724 6.265 0.577z"/>
 <path d="m163.66 124.98c1.604-1.583 2.093-4.078 1.035-6.206-1.08-2.167-3.424-3.285-5.688-2.907-1.635 1.612-2.102 4.168-0.979 6.314 1.101 2.103 3.409 3.171 5.632 2.799z"/>
 <path d="m193.58 116.13c2.068-0.895 3.426-3.047 3.206-5.413-0.224-2.409-2.005-4.298-4.253-4.763-2.108 0.912-3.467 3.126-3.193 5.532 0.266 2.357 2.033 4.189 4.24 4.644z"/>
 <path d="m224.67 118.69c2.252-0.09 4.295-1.604 4.944-3.891 0.663-2.326-0.317-4.734-2.245-5.979-2.295 0.09-4.361 1.662-4.977 4.006-0.603 2.297 0.385 4.641 2.278 5.864z"/>
 <path d="m252.73 132.31c2.133 0.732 4.585 0.054 6.017-1.839 1.459-1.933 1.413-4.529 0.064-6.39-2.171-0.743-4.668-0.021-6.087 1.94-1.391 1.922-1.317 4.464 6e-3 6.289z"/>
 <path d="m273.98 155.15c1.724 1.449 4.253 1.705 6.272 0.454 2.06-1.273 2.955-3.71 2.369-5.932-1.756-1.479-4.343-1.709-6.375-0.394-1.991 1.295-2.843 3.69-2.266 5.872z"/>
 <path d="m285.55 184.11c1.086 1.979 3.351 3.13 5.687 2.694 2.38-0.444 4.097-2.395 4.353-4.674-1.104-2.016-3.433-3.166-5.806-2.672-2.323 0.487-3.981 2.413-4.234 4.652z"/>
 <path d="m285.87 215.3c0.295 2.236 1.994 4.129 4.327 4.565 2.38 0.447 4.688-0.75 5.748-2.787-0.3-2.276-2.06-4.19-4.446-4.584-2.344-0.39-4.587 0.808-5.629 2.806z"/>
 <path d="m274.9 244.51c-0.53 2.192 0.369 4.572 2.387 5.819 2.06 1.277 4.642 0.992 6.368-0.522 0.541-2.232-0.407-4.648-2.491-5.882-2.045-1.208-4.569-0.901-6.264 0.585z"/>
 <path d="m254.12 267.78c-1.287 1.85-1.307 4.392 0.123 6.289 1.46 1.933 3.97 2.6 6.126 1.81 1.312-1.886 1.3-4.482-0.198-6.383-1.469-1.867-3.934-2.491-6.051-1.716z"/>
 <path d="m226.34 281.97c-1.87 1.263-2.808 3.624-2.156 5.91 0.662 2.326 2.761 3.858 5.056 3.902 1.904-1.288 2.833-3.711 2.124-6.026-0.698-2.272-2.77-3.743-5.024-3.786z"/>
 <path d="m195.32 285.16c-2.198 0.501-3.927 2.369-4.147 4.73-0.222 2.413 1.183 4.598 3.307 5.467 2.239-0.508 3.981-2.438 4.156-4.85 0.171-2.368-1.23-4.492-3.316-5.347z"/>
 <path d="m165.23 276.94c-2.23-0.328-4.517 0.786-5.575 2.914-1.08 2.167-0.559 4.709 1.107 6.288 2.272 0.336 4.594-0.833 5.629-3.021 1.013-2.146 0.474-4.635-1.161-6.181z"/>
 <path d="m140.14 258.39c-1.962-1.111-4.497-0.898-6.251 0.703-1.788 1.63-2.223 4.19-1.238 6.267 1.998 1.129 4.583 0.881 6.339-0.785 1.721-1.639 2.116-4.152 1.15-6.185z"/>
 <path d="m123.45 232.04c-1.428-1.745-3.868-2.459-6.082-1.601-2.257 0.872-3.588 3.104-3.42 5.395 1.455 1.777 3.956 2.478 6.195 1.558 2.198-0.902 3.473-3.105 3.307-5.352z"/>
 <polygon points="64.508 201.98 64.508 193.62 47.221 193.62 47.221 181.09 34.091 181.09 34.091 202.29 34.525 223.49 47.653 223.23 47.396 210.7 64.679 210.34" fill="#9B2F1D"/>
 <polygon points="73.299 152.12 76.321 144.32 60.202 138.07 64.728 126.39 52.485 121.64 44.824 141.42 37.571 161.35 49.909 165.84 54.195 154.06 70.44 159.98" fill="#9B2F1D"/>
 <polygon points="99.512 108.8 105.15 102.62 92.37 90.969 100.81 81.708 91.11 72.863 76.823 88.535 62.862 104.5 72.744 113.14 80.993 103.71 94.005 115.09" fill="#9B2F1D"/>
 <polygon points="139.6 77.872 147.09 74.143 139.38 58.666 150.6 53.083 144.75 41.328 125.77 50.783 106.98 60.62 113.07 72.253 124.17 66.437 132.2 81.751" fill="#9B2F1D"/>
 <polygon points="188.16 63.516 196.48 62.744 194.89 45.529 207.37 44.375 206.16 31.3 185.04 33.258 163.97 35.645 165.45 48.691 177.9 47.282 179.85 64.457" fill="#9B2F1D"/>
 <polygon points="238.62 67.67 246.66 69.956 251.4 53.329 263.45 56.758 267.04 44.13 246.64 38.328 226.13 32.944 222.8 45.645 234.92 48.825 230.53 65.546" fill="#9B2F1D"/>
 <polygon points="284.18 89.771 290.85 94.813 301.27 81.016 311.27 88.567 319.18 78.092 302.26 65.308 285.07 52.882 277.38 63.52 287.53 70.861 277.4 84.871" fill="#9B2F1D"/>
 <polygon points="318.67 126.84 323.07 133.95 337.77 124.85 344.37 135.5 355.53 128.59 344.36 110.56 332.84 92.761 321.81 99.901 328.63 110.42 314.12 119.82" fill="#9B2F1D"/>
 <polygon points="337.44 173.86 338.98 182.08 355.97 178.9 358.28 191.22 371.18 188.81 367.28 167.96 362.96 147.2 350.11 149.88 352.66 162.15 335.74 165.68" fill="#9B2F1D"/>
 <polygon points="337.96 224.49 336.43 232.71 353.42 235.89 351.12 248.21 364.02 250.62 367.92 229.77 371.39 208.85 358.44 206.7 356.39 219.07 339.33 216.24" fill="#9B2F1D"/>
 <polygon points="320.16 271.89 315.76 279 330.45 288.1 323.86 298.76 335.02 305.67 346.18 287.64 356.97 269.38 345.67 262.7 339.3 273.49 324.42 264.69" fill="#9B2F1D"/>
 <polygon points="286.43 309.66 279.76 314.7 290.18 328.49 280.18 336.05 288.09 346.52 305.01 333.74 321.67 320.62 313.54 310.31 303.7 318.06 293 304.48" fill="#9B2F1D"/>
 <polygon points="241.34 332.69 233.3 334.98 238.03 351.6 225.98 355.04 229.57 367.66 249.97 361.86 270.24 355.64 266.39 343.09 254.41 346.76 249.34 330.24" fill="#9B2F1D"/>
 <polygon points="190.98 337.88 182.65 337.11 181.05 354.32 168.58 353.17 167.36 366.24 188.48 368.2 209.63 369.72 210.57 356.62 198.08 355.72 199.32 338.48" fill="#9B2F1D"/>
 <polygon points="142.14 324.52 134.65 320.8 126.94 336.27 115.73 330.69 109.87 342.44 128.86 351.89 148.03 360.95 153.64 349.08 142.31 343.73 149.7 328.1" fill="#9B2F1D"/>
 <polygon points="101.42 294.43 95.783 288.25 83.009 299.89 74.565 290.63 64.863 299.48 79.15 315.15 93.755 330.52 103.27 321.48 94.644 312.4 107.18 300.49" fill="#9B2F1D"/>
 <polygon points="74.322 251.65 71.302 243.86 55.181 250.1 50.654 238.42 38.411 243.16 46.072 262.93 54.137 282.55 66.28 277.55 61.515 265.96 77.502 259.39" fill="#9B2F1D"/>
 <path d="m34.084 170.91v5.78c2.789 0 5.079-2.12 5.342-4.84 0.683-2.643-0.743-5.419-3.365-6.375l-1.977 5.435z"/>
 <path d="m56.155 112.15l-2.088 5.391c2.602 1.006 5.502-0.144 6.729-2.582 1.594-2.221 1.266-5.326-0.834-7.162l-3.807 4.353z"/>
 <path d="m97.961 65.337l-3.895 4.273c2.061 1.878 5.182 1.854 7.209 0.021 2.286-1.493 3.101-4.504 1.806-6.978l-5.12 2.684z"/>
 <path d="m153.86 36.784l-5.176 2.579c1.244 2.499 4.163 3.603 6.714 2.625 2.67-0.566 4.52-3.083 4.207-5.853l-5.745 0.649z"/>
 <path d="m216.29 30.353l-5.756 0.536c0.258 2.776 2.581 4.861 5.311 4.872 2.697 0.437 5.33-1.24 6.039-3.938l-5.594-1.47z"/>
 <path d="m276.83 46.91l-5.561-1.583c-0.763 2.683 0.651 5.467 3.193 6.462 2.356 1.381 5.418 0.768 7.054-1.493l-4.686-3.386z"/>
 <path d="m327.31 84.218l-4.615-3.483c-1.681 2.225-1.367 5.33 0.642 7.18 1.698 2.138 4.774 2.672 7.114 1.154l-3.141-4.851z"/>
 <path d="m360.89 137.24l-3.044-4.915c-2.372 1.468-3.202 4.479-1.994 6.927 0.812 2.607 3.483 4.219 6.217 3.649l-1.179-5.661z"/>
 <path d="m373.06 198.81l-1.064-5.684c-2.74 0.513-4.604 3.019-4.363 5.737-0.184 2.727 1.728 5.193 4.479 5.651l0.948-5.704z"/>
 <path d="m362.16 260.62l1.063-5.683c-2.744-0.512-5.384 1.15-6.141 3.775-1.157 2.474-0.267 5.463 2.135 6.884l2.943-4.976z"/>
 <path d="m329.67 314.33l3.043-4.918c-2.372-1.468-5.438-0.869-7.089 1.305-1.973 1.887-2.222 4.998-0.498 7.19l4.544-3.577z"/>
 <path d="m279.97 352.66l4.615-3.483c-1.682-2.229-4.755-2.776-7.082-1.349-2.522 1.05-3.878 3.862-3.06 6.527l5.527-1.695z"/>
 <path d="m219.78 370.46l5.561-1.583c-0.763-2.683-3.43-4.306-6.116-3.815-2.731 0.068-5.01 2.2-5.211 4.983l5.766 0.415z"/>
 <path d="m157.23 365.31l5.757 0.534c0.258-2.78-1.643-5.255-4.326-5.767-2.571-0.927-5.467 0.238-6.659 2.763l5.228 2.47z"/>
 <path d="m100.76 337.91l5.177 2.574c1.242-2.495 0.364-5.491-1.951-6.938-2.063-1.789-5.185-1.749-7.207 0.169l3.981 4.195z"/>
 <path d="m58.001 291.96l3.895 4.273c2.063-1.879 2.326-4.991 0.688-7.177-1.276-2.416-4.201-3.505-6.781-2.444l2.198 5.348z"/>
 <path d="m34.728 233.67l2.09 5.392c2.6-1.006 3.97-3.812 3.232-6.44-0.317-2.716-2.652-4.789-5.439-4.731l0.117 5.779z"/>
 <path d="m147.9 190.98l5e-3 2.644-19.534-8e-3 -0.018 8e-3 7e-3 7.702 0.151 7.706 0.018 4e-3 19.528-0.408 0.05 2.644 0.959 2.463-18.218 7.05-0.014 0.015 2.789 7.18 2.924 7.129h0.02l18.063-7.436 1.001 2.445 1.785 1.95-14.44 13.155-9e-3 0.018 5.196 5.69 5.301 5.59 0.018-8e-3 14.157-13.458 1.817 1.919 2.368 1.176-8.712 17.481-2e-3 0.019 6.898 3.429 6.963 3.297 0.014-0.012 8.339-17.666 2.389 1.137 2.633 0.237-1.811 19.451 5e-3 0.019 7.672 0.703 7.685 0.559 9e-3 -0.015 1.396-19.487 2.636 0.195 2.541-0.729 5.339 18.791 0.013 0.015 7.408-2.113 7.367-2.254 2e-3 -0.018-5.739-18.673 2.53-0.771 2.105-1.598 11.767 15.593 0.016 0.011 6.146-4.648 6.054-4.763-5e-3 -0.019-12.095-15.34 2.081-1.63 1.386-2.25 16.604 10.288 0.02 3e-3 4.05-6.556 3.927-6.628-0.013-0.015-16.818-9.935 1.349-2.271 0.481-2.6 19.2 3.595 0.019-4e-3 1.408-7.572 1.268-7.602-0.017-7e-3 -19.272-3.188 0.437-2.606-0.49-2.601 19.203-3.58 0.017-0.011-1.423-7.573-1.564-7.544h-0.019l-19.122 3.988-0.534-2.589-1.396-2.246 16.611-10.277 0.011-0.015-4.061-6.545-4.185-6.47-0.019 4e-3 -16.389 10.627-1.434-2.221-2.113-1.591 11.777-15.582 6e-3 -0.018-6.152-4.637-6.238-4.522-0.017 0.011-11.443 15.831-2.139-1.554-2.544-0.718 5.354-18.788-2e-3 -0.018-7.413-2.102-7.449-1.962-0.013 0.015-4.951 18.896-2.555-0.674-2.633 0.249-1.796-19.451-9e-3 -0.018-7.67 0.718-7.656 0.862-5e-3 0.018 2.209 19.408-2.627 0.292-2.364 1.183-8.701-17.489-0.015-0.011-6.893 3.44-6.828 3.566 2e-3 0.021 9.071 17.298-2.344 1.223-1.778 1.958-14.432-13.166-0.018-7e-3 -5.186 5.698-5.078 5.794 9e-3 0.019 14.707 12.855-1.744 1.986-0.95 2.467-18.212-7.064h-0.02l-2.776 7.188-2.642 7.237 0.014 0.014 18.358 6.675-0.904 2.48zm-51.607 10.677v-8.042l-19.612 8e-3v-15.203l5.2-14.284 18.425 6.715 2.751-7.555 2.903-7.497-18.288-7.079 5.49-14.175 10.009-11.442 14.756 12.917 5.293-6.051 5.418-5.942-14.498-13.206 10.241-11.236 13.465-7.053 9.095 17.377 7.122-3.732 7.198-3.584-8.746-17.55 13.607-6.779 15.104-1.713 2.203 19.49 7.989-0.909 8.007-0.743-1.817-19.527 15.136-1.402 14.704 3.862-4.986 18.964 7.777 2.041 7.734 2.203 5.36-18.867 14.621 4.161 12.316 8.911-11.502 15.885 6.517 4.713 6.415 4.847 11.813-15.658 12.131 9.163 8.265 12.758-16.462 10.656 4.374 6.75 4.234 6.833 16.667-10.328 8.005 12.924 3.098 14.882-19.202 3.992 1.641 7.872 1.479 7.9 19.274-3.609 2.795 14.943-2.484 14.998-19.347-3.217-1.316 7.933-1.479 7.905 19.281 3.595-2.794 14.943-7.735 13.087-16.88-9.985-4.093 6.92-4.229 6.837 16.678 10.316-8.006 12.928-11.939 9.408-12.131-15.412-6.315 4.977-6.417 4.847 11.824 15.646-12.131 9.159-14.532 4.461-5.746-18.752-7.687 2.358-7.735 2.203 5.375 18.86-14.622 4.161-15.162-1.093 1.415-19.56-8.019-0.58-8.005-0.739-1.803 19.526-15.136-1.402-13.745-6.494 8.386-17.728-7.27-3.437-7.198-3.585-8.735 17.559-13.607-6.776-10.47-11.02 14.224-13.501-5.537-5.831-5.418-5.943-14.487 13.22-10.241-11.236-5.782-14.056 18.142-7.454-3.058-7.436-2.905-7.497-18.284 7.09-5.492-14.176-0.312-15.195 19.608-0.397-0.168-8.036zm-46.103-27.907l-7e-3 7.316h19.574l-0.016 19.556h19.552l0.023 2.21-19.548 0.404 0.418 19.548-19.57 0.404 0.159 7.313 2.634 6.826 18.251-7.071 7.05 18.242 18.232-7.064 0.818 2.056-18.083 7.436 7.452 18.077-18.103 7.447 2.791 6.761 4.922 5.413 14.466-13.188 13.162 14.464 14.45-13.173 1.505 1.619-14.175 13.469 13.481 14.164-14.191 13.483 5.045 5.297 6.545 3.271 8.725-17.521 17.499 8.73 8.716-17.504 1.989 0.966-8.354 17.677 17.688 8.341-8.362 17.699 6.617 3.119 7.286 0.682 1.805-19.491 19.471 1.821 1.805-19.469 2.204 0.184-1.403 19.501 19.505 1.385-1.404 19.523 7.297 0.52 7.041-1.994-5.357-18.827 18.813-5.337-5.351-18.806 2.122-0.628 5.735 18.694 18.689-5.752 5.743 18.712 6.992-2.152 5.844-4.403-11.796-15.621 15.614-11.774-11.782-15.6 1.752-1.352 12.1 15.357 15.352-12.116 12.112 15.376 5.741-4.536 3.858-6.217-16.642-10.303 10.31-16.616-16.624-10.295 1.146-1.894 16.829 9.949 9.938-16.841 16.852 9.96 3.714-6.303 1.353-7.19-19.238-3.596 3.605-19.22-19.216-3.592 0.382-2.178 19.289 3.194 3.184-19.292 19.311 3.198 1.187-7.219-1.335-7.19-19.241 3.595-3.577-19.228-19.221 3.596-0.429-2.171 19.141-3.988-4.003-19.141 19.163-3.988-1.5-7.162-3.845-6.224-16.642 10.302-10.28-16.634-16.624 10.292-1.183-1.868 16.407-10.63-10.646-16.404 16.426-10.645-3.984-6.134-5.837-4.416-11.795 15.621-15.597-11.799-11.782 15.604-1.778-1.313 11.46-15.841-15.854-11.449 11.473-15.859-5.934-4.28-7.034-2.013-5.356 18.827-18.806-5.366-5.35 18.806-2.135-0.584 4.964-18.914-18.919-4.947 4.97-18.932-7.079-1.85-7.286 0.667 1.807 19.491-19.475 1.789 1.805 19.469-2.2 0.224-2.203-19.426-19.43 2.221-2.207-19.451-7.268 0.833-6.554 3.253 8.725 17.521-17.513 8.705 8.716 17.5-1.969 1.006-9.073-17.32-17.316 9.091-9.082-17.341-6.478 3.404-4.935 5.402 14.466 13.184-13.188 14.442 14.45 13.173-1.473 1.648-14.716-12.87-12.863 14.727-14.732-12.884-4.811 5.51-2.65 6.819 18.252 7.071-7.081 18.229 18.232 7.064-0.777 2.069-18.375-6.686-6.673 18.38-18.393-6.692-2.493 6.876zm85.156 26.872h19.538l0.021-4e-3v-8.405l2.874-7.897-0.018-0.011-18.36-6.682 0.445-1.184 18.218 7.058 0.022 4e-3 3.036-7.836 5.533-6.325-0.014-0.019-14.706-12.862 0.844-0.945 14.438 13.162 0.018 0.011 5.662-6.209 7.445-3.898-7e-3 -0.021-9.065-17.309 1.128-0.573 8.708 17.49 0.013 0.018 7.522-3.747 8.352-0.948v-0.021l-2.202-19.411 1.26-0.13 1.803 19.451 5e-3 0.021 8.367-0.775 8.129 2.135 9e-3 -0.021 4.96-18.896 1.223 0.332-5.348 18.794-2e-3 0.021 8.083 2.301 6.81 4.926 0.015-0.018 11.453-15.831 1.017 0.753-11.773 15.593-0.011 0.018 6.707 5.066 4.57 7.054 0.02-0.011 16.397-10.623 0.678 1.07-16.611 10.285-0.017 0.014 4.423 7.144 1.715 8.229h0.021l19.127-3.984 0.245 1.24-19.204 3.592-0.021 7e-3 1.545 8.262-1.374 8.29 0.02 7e-3 19.274 3.195-0.22 1.247-19.204-3.591h-0.021l-1.545 8.261-4.277 7.237 0.019 0.011 16.818 9.942-0.656 1.085-16.611-10.284-0.02-0.011-4.425 7.147-6.601 5.2 0.011 0.021 12.091 15.344-1.002 0.775-11.774-15.593-0.016-0.015-6.707 5.063-8.035 2.467 4e-3 0.021 5.732 18.68-1.216 0.356-5.346-18.791-9e-3 -0.018-8.085 2.297-8.382-0.603-5e-3 0.022-1.403 19.486-1.262-0.104 1.803-19.454-2e-3 -0.021-8.368-0.775-7.598-3.592-0.013 0.018-8.348 17.666-1.14-0.552 8.708-17.489 7e-3 -0.021-7.524-3.747-5.788-6.094-0.018 0.015-14.165 13.454-0.864-0.927 14.438-13.162 0.015-0.019-5.664-6.209-3.195-7.771-0.021 4e-3 -18.07 7.429-0.469-1.176 18.217-7.057 0.018-0.011-3.034-7.836-0.173-8.402-0.021-4e-3 -19.534 0.4-0.01-1.266z"/>
 <polygon points="41.469 200.58 34.091 200.58 34.127 204.01 41.503 203.86"/>
 <polygon points="52.325 142.48 45.445 139.82 44.238 143.03 51.171 145.56"/>
 <polygon points="83.431 92.238 77.979 87.269 75.694 89.829 81.247 94.687"/>
 <polygon points="130.59 56.621 127.3 50.015 124.25 51.576 127.67 58.114"/>
 <polygon points="187.43 40.444 186.75 33.099 183.34 33.449 184.17 40.78"/>
 <polygon points="246.28 45.893 248.3 38.796 244.98 37.892 243.11 45.028"/>
 <polygon points="299.18 72.232 303.63 66.343 300.87 64.306 296.54 70.281"/>
 <polygon points="338.99 115.9 345.27 112.02 343.43 109.12 337.24 113.13"/>
 <polygon points="360.35 171.01 367.6 169.65 366.93 166.28 359.71 167.79"/>
 <polygon points="360.35 230.1 367.6 231.46 368.2 228.08 360.92 226.87"/>
 <polygon points="339.01 285.21 345.28 289.1 347.06 286.16 340.7 282.41"/>
 <polygon points="299.2 328.89 303.64 334.78 306.36 332.68 301.79 326.89"/>
 <polygon points="246.3 355.23 248.31 362.33 251.61 361.36 249.44 354.3"/>
 <polygon points="187.45 360.69 186.77 368.04 190.19 368.32 190.72 360.96"/>
 <polygon points="130.61 344.52 127.32 351.13 130.41 352.63 133.56 345.96"/>
 <polygon points="83.447 308.91 77.995 313.88 80.331 316.39 85.681 311.31"/>
 <polygon points="52.332 258.67 45.452 261.33 46.725 264.52 53.547 261.72"/>
 <polygon points="183.27 200.57 190.5 200.57 190.51 200.81 183.27 200.96"/>
 <polygon points="184.55 193.7 191.3 196.32 191.22 196.54 184.42 194.06"/>
 <polygon points="188.23 187.76 193.58 192.63 193.42 192.81 187.97 188.05"/>
 <polygon points="193.81 183.55 197.03 190.03 196.82 190.14 193.46 183.73"/>
 <polygon points="200.52 181.64 201.19 188.84 200.95 188.87 200.14 181.68"/>
 <polygon points="207.48 182.28 205.5 189.24 205.27 189.18 207.1 182.18"/>
 <polygon points="213.73 185.4 209.37 191.17 209.18 191.03 213.42 185.17"/>
 <polygon points="218.44 190.56 212.29 194.37 212.16 194.17 218.23 190.23"/>
 <polygon points="220.96 197.07 213.85 198.4 213.8 198.16 220.89 196.69"/>
 <polygon points="220.96 204.06 213.85 202.73 213.89 202.49 221.03 203.68"/>
 <polygon points="218.44 210.57 212.29 206.77 212.41 206.56 218.64 210.24"/>
 <polygon points="213.73 215.74 209.37 209.96 209.56 209.82 214.04 215.5"/>
 <polygon points="207.48 218.85 205.5 211.89 205.73 211.82 207.86 218.74"/>
 <polygon points="200.52 219.5 201.19 212.29 201.43 212.31 200.91 219.53"/>
 <polygon points="193.81 217.58 197.03 211.11 197.25 211.21 194.16 217.75"/>
 <polygon points="188.23 213.37 193.58 208.5 193.74 208.68 188.5 213.66"/>
 <polygon points="184.55 207.43 191.3 204.82 191.39 205.05 184.7 207.8"/>
</svg>
