<?xml version="1.0" encoding="UTF-8"?>
<!DOCTYPE svg  PUBLIC '-//W3C//DTD SVG 1.1//EN'  'http://www.w3.org/Graphics/SVG/1.1/DTD/svg11.dtd'>
<svg enable-background="new 0 0 2048 2048" version="1.1" viewBox="0 0 2048 2048" xml:space="preserve" xmlns="http://www.w3.org/2000/svg">
	<path d="m1103.7 77.67c4.2999-10.78 20.45-12.64 28.05-4.38 6.37 7.04 9 16.45 11.57 25.37 2.9199 13.75 3.84 27.83 3.73 41.87 2.86-4.07 4.8199-8.7 7.84-12.66 18.01-26.05 46.09-44.1 76.24-52.91 2.41 14.41 3.89 29.24 1.6801 43.8-1.6801 21.55-8.89 42.63-21.08 60.5 15.16-7.86 30.91-15.95 48.24-17.21 6.17 0.32 13.09-1.41 18.45 2.58 5.9299 4.18 9.09 12.14 7.5599 19.28-0.88 4.67-4.13 8.8-8.6499 10.39-4.79 2.39-10.48 0.97-14.78-1.79-6.98-4.27-9.3401-14.74-4.38-21.38 2.01-3.16 5.21-5.18 8.03-7.53-18.72 0.45-36.22 8.33-52.37 17.2-6.79 3.62-11.61 9.72-17.08 14.95-5.72 5.48-12.7 9.37-18.85 14.3 10.5-3.88 21.19-7.54 32.36-8.94 21.46-3.58 44.55 0.55 62.56 13.07 5.2699 4.04 10.84 8.02 14.6 13.6-7.02-1.53-14.16-2.3-21.27-3.25-19.93-2.59-40.82 2.61-56.99 14.6-18.04 13.11-31.26 31.55-42.52 50.54-6.1801 10.08-10.31 21.64-18.87 30.09-8.5 7.61-18.1 14.18-28.85 18.15-9.51 3.82-19.74 5.38-29.91 6.07-7.9-0.36-16.1-1.37-22.81-5.95-3.2201 5.4-7.29 10.21-10.59 15.55-15.1 22.05-28.06 45.51-39.27 69.75-5.09 10.35-9.18 21.15-12.95 32.04-3.45 9.33-7.77 18.39-10.15 28.08 2.79-3.36 5.14-7.05 7.57-10.66 16.2-23.69 34.36-46.05 54.98-66.02 37.43-36.13 82.92-64.98 133.48-78.5 19.44-5.11 39.5-8.05 59.58-8.42 10.58-1.33 21.22 0.28 31.83 0.15 1.85-3.13 3.5399-7.06 7.49-7.93 4.09-1.68 8.1699 0.72 11.86 2.33 18.24-16.86 37.5-32.96 59.33-45.02 10.88-5.66 22.24-10.88 34.52-12.56 18.88-2.78 38.3-0.66 56.55 4.78 21.45 6.29 41.85 15.55 62.38 24.26-6.8401 8.72-14.59 16.63-22.44 24.43-12.14 11.96-26.03 22.23-41.35 29.76-19.77 10-42.04 14.81-64.15 14.53 9.8201 6.64 19.38 13.66 28.55 21.19 3.0699 0.52 6.22 0.18 9.34 0.29 2.4 1.94 3.34 6.9 7.15 5.95 12.2-2.81 24.54-5.15 37.05-6.01 5.02-0.32 9.9401 0.77 14.93 1.19 8.99 1.13 17.52 4.83 24.93 10 15.42 10.11 26.56 25.09 38.22 39.08-14.05 5.39-28.81 10.17-44.02 9.72-15.55 0.65-31.23-3.87-44.33-12.21 6.5 13.11 11.78 27.39 11.37 42.23 0.5299 11.01-2.3201 22.3-8.65 31.39-11.3 16.11-34.28 22.07-52.21 14.41-4.5901-2.03-9.25-4.94-11.23-9.78-3.48-6.03-2.73-14.73 2.8401-19.28 6.1799-4.1 15.98-0.1 17.19 7.34 0.51 2.73-1.11 5.08-2.59 7.2-0.53-3.59 0.34-8.15-3.12-10.52-2.5-2.28-5.96-1.9-9.0601-1.84-6.52 6.07-4.0699 17.4 3.3301 21.57 15.84 9.3 37.53 5.1 49.69-8.34 4.61-5.32 7.1801-11.95 9.1-18.63 3.2101-17.98-0.45-36.97-9.39-52.87 1.6101 9.84 4.1801 20.52-0.2599 30.03-6.04 14.94-25.95 23.03-40.27 14.93-5.1801-3.51-7.9701-12.28-2.7201-16.89 3.03-3.34 8.54-1.63 11.09 1.51 2.14 1.8 0.9 4.86 0.12 7.05-0.6801-1.94-1.13-3.95-2.05-5.78-1.99-2.11-5.2-1.48-7.7899-1.63-2.3401 4.68-1.7301 11.14 3.2 13.88 11.98 5.91 27.95 0.43 34.41-11.11 3.1699-5.32 4.5-11.75 3.8099-17.88-0.8099-11.69-5.71-23.02-13.43-31.8-2.7001-3.79-6.78-6.41-9.0801-10.5 0.52-0.46 1.5701-1.37 2.1-1.83 7.76 11.35 20.12 18.75 33.22 22.33-2.14-3.8-5.4601-6.7-8.4701-9.79-6.6399-6.77-15.54-10.64-24.34-13.74-1.77-0.78-3.66-0.35-5.45 0-1.42-1.82-2.8201-3.64-4.3-5.39-3.0699-0.1-6.53 0.41-8.99-1.83-3.39-2.42-1.46-7.69-4.9299-10.04-7.9701-6.75-16.08-13.39-24.84-19.12-3.36-2.15-6.73-4.54-10.7-5.34-25.24-4.33-48.75-15.02-71.88-25.6-3.28 3.11-7.73 6.5-12.51 5.03-3.33-0.44-5.5-3.2-7.51-5.58-1.28-2.25-4.22-1.62-6.36-1.98-7.66-0.06-15.34-0.21-22.98 0.34-5.03 0.06-10.08-0.11-15.05 0.78-24.71 1.69-49.13 7.15-72.27 15.99-36.46 13.85-69.69 35.43-98.78 61.25-7.0901 6.2-13.45 13.2-20.21 19.77-5.0699 4.64-8.7999 10.48-14.01 14.98-10.75 12.08-20.64 24.93-29.83 38.25-5.14 7.93-11.43 15.3-14.72 24.26-3.65 13.23-6.36 26.7-8.74 40.21-1.32 9.53-3.18 19.03-3.5 28.66-1.49 10.35-0.6 20.95-3.08 31.2 0.52-0.39 1.5699-1.17 2.09-1.5601 1.51-19.28 6.58-38.17 13.65-56.13 15.01-38.32 42.89-72.61 80.39-90.62 21.33-10.75 45.34-14.96 69.01-15.91 2.86-0.12 5.8 0.29 8.62-0.35 4.4-2.53 8.2101-5.96 12.56-8.59 8.6799-4.69 18.27-7.58 28.04-8.9 10.84-0.79 22.2-0.42 32.15 4.44 19.27 9.18 39.34 17.44 60.65 20.26 2.87 0.19 5.79-0.04 8.65 0.48 3.77 0.91 7.53-0.51 11.33-0.4 11.92-1.05 23.32-5.99 32.78-13.23 6.74-4.9 12.01-11.46 18.26-16.93-0.29 10.08-3.41 20.03-8.47 28.72-9.4501 15.7-25.34 26.61-42.39 32.68-4.74 1.73-9.7201 2.69-14.4 4.58 6.36 0.5 12.76-0.17 19.13 0.38 4.01 0.8 8.13 0.85 12.16 1.61 19.01-1.56 38.76-5.46 54.62-16.68-3.61-0.37-7.41 0.42-10.84-1.01-6.89-2.22-10.99-11.26-7.5299-17.77 2.23-5.22 8.24-8.9 13.9-7.55 10.41 1.77 15.87 16.25 8.9601 24.36-4.8201 5.55-11.66 8.73-18.21 11.76-10.71 4.28-22.07 6.59-33.41 8.45 1.98 1.56 4.39 2.37 6.7 3.38 9.84 4.24 19.22 9.67 27.49 16.52 14.58 11.55 25.88 26.73 35.1 42.78-29.06 10.06-61.94 10.16-90.25-2.43 2.9501 5.16 7.28 9.34 10.43 14.38 6.9399 10.17 12.87 21.57 14.03 34.01 0.23 10.04-11.96 17.39-20.83 12.81-8.02-3.56-10.01-15.36-3.84-21.47 4.55-4.25 12.22-4.87 17.1-0.84 2.28 1.55 3.85 3.86 5.73 5.84-4.13-16.25-13.58-30.56-24.42-43.11-5.2101-6.28-12.63-10.01-18.69-15.33-4.25-2.97-7.36-7.2-11.4-10.41 10.19 16.95 18.46 36.01 18.06 56.11-0.8199 13.44-5.15 26.86-13.62 37.46-1.3199-8.76-0.8101-17.68-2.9-26.33-3.1699-17.86-14.13-33.66-28.44-44.51-16.81-13.12-36.76-21.43-56.8-28.23-8.55-2.87-16.65-7.5-22.8-14.16-12.74-12.13-21.74-28.6-23.8-46.16-0.49-4.3 0.84-8.5 0.77-12.79-8.02 1.14-16.17 0.6-24.14 2.01-20.26 2.49-40.13 8.93-57.7 19.39-18.25 10.76-33.71 25.85-46.01 43.02-14.06 20.14-24.21 42.93-30.26 66.72-4.86 17.91-6.93 36.45-8.07 54.91 0.33 6.93-0.87 14.04 1.12 20.79 1.52 4.39 0.28 9.13 1.54 13.58 5.97 34.92 17.45 68.86 33.61 100.37 17.59 35.1 40.46 67.33 66 97.05 4.08 3.94 6.91 9.12 11.88 12.12 33.35 23.54 65.8 48.52 95.62 76.4 4.76 5.26 10.52 9.44 15.23 14.76 6.85 6.17 12.59 13.4 19.27 19.76 12.49 13.9 24.71 28.08 35.85 43.11 25.19 33.3 45.09 70.76 57.22 110.78 3.28 10.04 5.16 20.45 7.8101 30.66 7.58-11.02 15.67-21.67 24.33-31.86 6.4601-7.33 10.92-16.09 15.23-24.78 4.27-8.17 7.77-16.72 10.51-25.51-0.85-1.36-2.1699-2.5801-2.0299-4.3-0.5701-9.55-2.77-19.5-8.9601-27.06-6.46-6.5701-15.32-9.8601-22.41-15.6-6.9301-5.96-11.07-14.79-12.21-23.77-1.98-12.48 1.3101-24.97 0.41-37.49 7.02 3.75 14.92 5.21 22.46 7.59 6.3201 1.7401 12.66 5.02 16.34 10.64 6.0499 7.78 8.2999 17.66 9.84 27.18 2.08 19.41-3.39 38.46-4.28 57.76 1.02 0.76 2.08 1.53 3.2001 2.23 2.2999-12.96 5.36-25.79 6.8799-38.88 1.1801 1.39 1.8201 3.12 2.63 4.77-0.08-1.99-0.21-3.96-0.3199-5.92 1.15 0.63 2.3101 1.28 3.48 1.9601-1.22 4.4299-2.5 8.85-3.59 13.32-5.35 21.41-13.65 41.97-23.49 61.69 5.0399-4.3201 9.21-9.5701 14.52-13.57 26.21-26.1 56.38-47.91 87.94-67.09 1.79-1.16 3.77-2.16 5.12-3.88 5.6-8.1899 9.1-18.41 6.84-28.34-3.33-10.99-12.28-20.38-11.61-32.42-0.4299-6.33 2.3501-12.27 5.4501-17.6 5.4-8.01 12.48-14.71 17.76-22.81 2.7 3.99 5.64 7.81 8.6899 11.55 6.12 6.85 13.45 13.96 14.51 23.59 1.15 4.55-0.11 9.2-0.99 13.68-2.76 11.81-10.02 22.04-18.64 30.34-6.8199 6.97-14.17 13.48-19.97 21.37 9.51-4.41 18.36-10.08 27.91-14.4 6.86-3.01 12.92-7.57 18.13-12.92 5.6799-4.95 11.88-9.5099 16.23-15.76 4.71-7.02 8.62-14.8 9.77-23.26 1.37-9.73 2.08-20 7.36-28.58 6.86-11.59 19.18-18.19 27.41-28.61 5.37-8.06 6.51-18.19 6.4401-27.64-0.63-6.8-2.51-14.42-8.37-18.61-6.79-4.55-15.88-3.11-22.68 0.65-6.53 3.56-12.61 10.11-12.07 18.03-0.4301 4.99 2.86 9.64 7.23 11.78 4.75 2.53 10.28 0.7401 15.39 1.32-5.74 1.81-11.93 4.05-17.95 2.28-3.83-0.94-6.9199-3.68-9.1-6.84-3.6-6.3-3.38-13.98-1.76-20.82 5.13-18.69 26.95-30.54 45.45-24.83 7.1899 2.3199 12.65 7.89 17.42 13.5 11.98 16.64 14.85 38.72 10.29 58.43-4.14 21.07-17.24 39.03-32.19 53.89-6.1101 5.21-11.95 10.72-18.39 15.53-2.5 2.46-6.25 3.8-7.74 7.13 0.47-0.18 1.4299-0.53 1.8999-0.71 13.45-9.85 27.33-19.27 39.41-30.83 8.34-6.61 15.33-14.69 22.39-22.6 19.4-22.36 34.82-48.94 40.92-78.14 2.0699-10.2 4.0399-20.78 2.0299-31.15-1.36-9.92-5.9199-19.23-11.96-27.13-5.2-6.09-13.02-10.75-21.26-10.01-9.9199 0.32-19.86 6.47-23.08 16.14-2.39 5.28 0.28 12.75 6.26 14.04 5.1 0.94 9.45-2.27 13.92-4.12-4.11 5.79-10.81 10.1-18.04 10.12-4.24-0.35-8.89-2.04-11.04-5.97-2.1899-3.94-3.58-8.71-2.29-13.16 1.79-9.87 6.89-19.1 14.24-25.9 7.39-6.66 17.15-10.5 27.08-10.81 8.3199 0.39 16.76 2.4 23.78 7.06 7.97 5.05 14.11 12.8 17.44 21.62 3.61 9.77 4.3199 20.39 3.15 30.69-0.8301 11.3-3.52 22.39-6.61 33.27-3.99 11.26-7.9601 22.64-13.95 33.03-8.25 14.83-19.32 27.84-30.59 40.42-4.51 3.84-7.52 9.11-12.28 12.66-3.96 3.05-6.95 7.17-11.06 10.03-12.43 10.94-26.31 20.1-40.68 28.25-3.12 1.35-6.27 2.67-8.7999 5 6.0699-0.71 11.64-3.54 17.46-5.27 19.01-6.5099 38.48-11.49 58.06-15.95 2.67-8.51 5.4601-17.11 10.33-24.66 4.6599-8.05 10.67-15.23 17.48-21.55 6.11-6.76 13.62-12.1 21.72-16.22 9.24-5.08 19.9-6.16 29.84-9.26 12.1-3.23 23.93-7.43 35.35-12.58 17.11-8.03 33.5-18.8 45.08-33.97 12.19-15.59 17.61-35.05 21.53-54.1 4.22 7.1 6.51 15.23 7.6 23.38 0.85 11.04 0.39 22.36-2.88 33.02-3.8101 12.72-9.77 24.76-17.31 35.68-3.6399 5.74-8.4399 10.66-12.07 16.37 8.77-7.22 17.99-14.01 28-19.46 4.85-2.64 8.11-7.26 12.36-10.69 13.59-13.48 26.39-28.72 32.83-47.01-2.64 2.31-4.88 5.19-8.0901 6.73-3.22 1.54-6.97 3.07-10.46 1.43-5.51-1.14-9.5601-6.47-9.3101-12.04-0.5499-6.27 2.7101-12.76 8.1801-15.92 7.58-5.15 19.08-0.98 22.19 7.54 2.13 6.59-0.3899 13.56-3.11 19.62-4.2999 8.92-9.8099 17.23-16.01 24.94-5.9099 7.45-12.82 14.01-19.25 20.99 5.4701-1.63 10.85-3.6 16.45-4.81 7.41-2.01 15.14-2.11 22.7-3.24 6-0.61 11.91 0.88 17.9 1 15.68 1.56 31.04 6.0699 45.17 13.03-7.6001 11.47-17.7 20.96-27.48 30.55-14.57 13-31.41 23.71-49.97 29.98-3.2 1.19-6.61 1.8-9.62 3.44-5.39 2.3-11.39 1.81-17.1 1.83-5.67-0.12-11.33 0.14-16.98-0.11-3.52-0.54-7.03-1.09-10.57-1.3 4.2201 2.17 8.7001 3.79 12.89 6.08 16.25 7.67 30.47 20.27 38.5 36.5 6.03 12.73 8.3101 27.26 5.9301 41.17-9.38-14.52-20.29-29.28-36.5-36.59-7.79-3.01-15.89-5.86-24.33-5.82-4.3899-0.3199-8.83-1.43-13.18-0.19-17.64 0.42-34.84 5.2401-51.58 10.47-8.55 2.72-16.77 6.51-25.59 8.31-21.3 2.73-43.87-3.69-59.84-18.24-5.73-5.39-10.9-12.1-11.9-20.13-22.52 5.11-44.82 11.23-66.5 19.19-20.41 7.5-40.8 15.42-59.69 26.29-9 3.71-17.7 8.17-26.01 13.24 9.86-2.09 19.6-4.7 29.49-6.6899 20.71-3.91 41.59-7.6801 62.69-8.33 10.67-1.49 21.49-0.63 32.24-0.74 6.9501 0.86 13.97 0.7 20.89 1.81 10.56 0.65 20.94 2.85 31.31 4.84 39.44 8.41 77.26 26.44 106.61 54.38 7.5699 6.08 13.88 13.48 20.3 20.71 3.5099-0.7899 7.34-2.6699 10.85-0.84 3.73 1.48 4.65 5.79 6.11 9.1 22.38-0.01 44.96-0.02 66.95 4.79 12.12 2.62 24.48 6.04 34.67 13.41 18.16 12.22 30.18 31.37 38.88 51.06 6.37 15.47 12.11 31.22 17.47 47.06-29.23 5-60.19 6.15-88.51-3.9701-16.47-5.7599-31.48-15.39-43.69-27.83 0.61 6.11 1.3199 12.22 1.99 18.33-0.13 5.51 0.5499 10.98 1.2999 16.44 1.25 0.84 2.53 1.73 3.6001 2.86 2.85 2.52 0.6799 6.65 0.1699 9.78 9.64 5.8199 19.56 11.47 27.82 19.22 8.6599 6.6801 15.34 16.09 18.2 26.73 2.24 6.4301 2.12 13.27 2.9 19.96-0.49 13.98-2.1801 27.94-4.96 41.65-17.59-6.2899-34.66-16.56-44.89-32.6-5.4701-7.8099-8.2201-17.05-10.43-26.21-6.0499 18.37-17 35.57-32.85 46.95-8.14 6.04-18.14 10.1-28.4 9.49-14.24 0.29-28.16-8.76-33.6-21.93-3.12-6.8301-2.8101-15.56 2.01-21.54 3.14-4.34 8.5499-7.6 14.05-6.71 5.1101 1.1599 7.4801 7.1799 6.4301 11.94-0.38 4.41-4.75 7.3-8.78 8.1 1.49-2.3899 3.5801-4.3099 5.3301-6.49 0.9299-3.1899 0.25-6.8999-2.13-9.2899-2.3-2.05-5.52-0.76-7.9 0.39-5.01 2.37-7.34 8.13-7.87 13.34 0.51 7.13 3.9199 14.04 9.27 18.81 6.5 7.15 16.4 9.91 25.77 10.21 6.8601-0.9301 13.83-2.51 19.75-6.28 9.8401-5.53 17.52-14.08 23.82-23.31 4.83-6.9299 8.84-14.53 11.16-22.67-4.54 5.99-8.49 12.67-14.7 17.16-7.2 5.4801-16.9 8.41-25.82 5.9901-8.7001-1.88-16.67-8.88-18.11-17.89 0.1799-5.8301 4.0699-12.03 10.05-13.2 4.49-0.84 7.4701 4.0601 6.86 8.05 0.0801 2.7999-2.9199 4.12-4.7899 5.64 0.9-2.23 1.9199-4.39 2.99-6.53-0.98-1.42-1.22-3.67-3.0801-4.17-3.3199-1.61-6.7 1.4501-7.9299 4.38-2.89 4.8101-0.61 10.88 3.04 14.61 4.98 4.75 11.86 7.88 18.84 7.3201 8.33-0.0601 15.86-4.78 21.53-10.57 9.46-10.03 14.83-23.53 15.76-37.22 0.49-2.58-0.3401-6.21 2.75-7.34-0.0701 2.99-0.1101 5.99-0.1001 9-0.26 9.45 2.66 18.66 6.6801 27.12 2.0599-6.87 1.37-14.09 1.37-21.14-0.85-6.52-3.88-12.5-5.1901-18.9-0.86 0.78-1.71 1.5601-2.5599 2.3301-1.59-3.3-0.63-6.89-0.8-10.35-0.97-3.1499-3.7-5.6-3.86-9 0.8-3.6599 5.02-6 4.41-9.99-1.0601-7.37-0.46-14.88-1.7-22.21-1.05-6.8199-0.41-14.53-4.9701-20.22-12.92-18.9-19.63-41.07-26.59-62.64-4.3199 0.09-10.03-0.23-12.1-4.71-2.17-3.7101 0.16-8-0.8101-11.88-16.93-18.03-35.89-34.3-57.16-47.03-36.34-20.69-78.12-30.58-119.66-32.43-12.66-0.2-25.31-0.1499-37.97 0.1001-7.6901 0.8999-15.36 1.8899-23.02 2.86-7.26-0.1901-14.35 1.5399-21.48 2.5699-15.43 2.6-30.68 6.15-45.75 10.33-4.52 1-8.8201 2.79-12.78 5.17-25.53 16.21-49.77 34.53-71.81 55.23-1.62 1.5901-3.2899 3.15-4.5499 5.0601 32.03-25.08 69.85-44.45 110.72-48.94 20.98-1.88 42.58-0.65 62.5 6.6901 16.68 5.74 31.66 15.63 44.84 27.23 2.9501 2.75 5.54 5.91 8.7101 8.45 2.33 0.52 5.0099 0.2101 6.9299 1.9401 2.0701-1.86 4.8101-0.6801 7.23-0.3301 9.8201 2.3201 19.18 6.7101 27.06 13.04 6.87 6 13.3 13.2 15.83 22.18 4.09 11.97 7.76 24.15 13.46 35.49 6.9801 14.35 16.63 28.17 30.72 36.28 9.7799 5.3999 21.06 7.33 32.12 7.2 5.1599-0.7 10.37-0.35 15.57-0.37-12.4 11.47-29.32 18.65-46.35 17.92-15.4 0.5699-30.05-5.55-43.51-12.38 1.85 2.09 4.22 3.63 6.22 5.58 3.99 3.74 7.0601 8.3 10.33 12.66 3.9099 5.8099 10.14 9.35 15.75 13.29 10.17 6.42 21.47 12.09 33.63 12.94-2.14-2.4401-4.7101-4.63-5.8301-7.75-3.15-8.85 5.05-19.44 14.43-18.44 5.45-0.23 10.05 4.6801 10.08 10.02 0.4301 7.66-4.77 16.03-12.62 17.53-6.62 1.48-13.42-0.37-19.74-2.3101-11.02-3.5299-20.75-9.96-30.16-16.53 5.16 13.48 9.2001 27.75 8.41 42.33 0.72 16.65-3.41 33.01-8.34 48.79-15.94-7-30.08-17.88-41.05-31.36-6.86-8.4701-11.74-18.32-15.47-28.5-2.75 11.15-4.1 22.77-8.87 33.36-3.64 8.22-7.6801 17.81-16.58 21.48-4.5801 0.6-10.18 0.91-13.48-2.97-3.8099-3.1801-4.2799-8.8401-2.72-13.27 2.8-7.4401 12.66-12.76 19.76-7.76 4.95 3.22 4.88 9.5699 4.9 14.82 5.24-8.6599 9.0499-18.2 11.4-28.04 2-8.7201 4.1799-17.55 3.61-26.57 0.08-3.7-1.1901-7.24-1.16-10.92-0.1-6.2201 0.21-12.45-0.09-18.66-3.92 13.23-8.6 26.46-16.6 37.85-10.93 16.79-28.22 30.08-48.28 33.42 6.59-7.99 14.1-15.28 19.46-24.22 4.1801-6.97 7.9-14.33 9.65-22.32 2.5699-8.85 1.87-18.1 1.9-27.19-1.6-19.96-8.65-39-16.91-57.07-3.5699-9.09-5.03-19.22-3.1899-28.85 0.98-9.98 3.8899-19.73 8.38-28.67 4.1799-9.02 10.55-17.19 18.88-22.72-20.21-21.15-47.62-35.64-76.78-39.09-21.11-2.6901-42.62-0.05-62.99 5.86-37.95 11.29-72.16 33.18-100.88 60.14-6.36 4.9099-11.58 11.13-15.81 17.94 5.35-1.74 10.04-5.02 14.87-7.84 17.75-11.46 33.11-26.59 52.34-35.73 9.3301-4.6901 19.7-6.77 30.01-7.88 10.19-0.37 20.77 1.85 29.18 7.85 15.41 12.75 22 32.88 37.09 45.94-13.87 5.4601-25.5 15.09-38.83 21.59-6.61 3.37-13.86 6.0599-21.39 5.62-7.3199 0.2899-14.51-1.86-21.02-5.05-10.83-5.73-18.16-15.93-28.11-22.85-6.51-5.11-14.69-7.6-22.86-8.1-10.35 0.5599-19.9 4.89-29.92 7.03-2.87 0.3999-3.97 3.4099-5.7999 5.25-4.55 6.11-10.06 11.52-13.92 18.12-0.21 2.8199 0.5601 5.61 0.76 8.4299 1.48 8.3 1.74 16.73 2.8199 25.09 0.0901 12.35 0.2001 24.7-0.0499 37.05-0.6 3.66-1.09 7.3199-0.9501 11.05-3.7899 39.07-13.8 77.41-27.89 113.99-14.67 38.08-33.51 74.45-54.71 109.28-18.67 31.67-40.38 61.38-62 91.06-22.43 30.65-47.05 59.59-70.86 89.15-11.38 13.94-23.08 27.63-33.86 42.05-23.74 29.51-46 60.35-64.57 93.41-10.24 19.47-18.97 39.98-23.54 61.58-4.47 20.75-4.58 42.68 1.92 63.02 2.68 7.4401 4.75 15.22 9.05 21.97 4.91 8.48 11.09 16.12 17.22 23.74 11.74 13.83 26.55 24.59 41.87 34.13 27.21 16.76 56.63 29.69 86.81 40.11 11.01 4.14 22.14 7.9399 33.35 11.46h-375.9c-3.05-5.12-7.16-9.51-10.07-14.73-5.94-8.3301-10.64-17.42-15.59-26.34-4.61-10.5-9.71-20.79-13.32-31.69-4.09-10.46-6.95-21.31-9.93-32.1-1.92-8.3201-4.28-16.56-5.07-25.09-1.92-13.62-3.3-27.37-2.7-41.15 0.45-4.65 1.11-9.29 0.8701-13.97 3.86-50 26.2-98.05 60.62-134.34 4.81-5.7899 10.27-11.03 16.05-15.84 14.66-14.38 31.81-25.86 48.93-37.1 32.98-21.24 67.28-40.35 99.97-62.03 30.85-19.97 60.68-41.54 88.87-65.1 15.81-12.82 30.82-26.51 45.8-40.26 4.08-4.62 9.3099-7.98 13.49-12.49 3.47-3.53 7.11-6.91 10.24-10.75 4.92-6.05 11.1-10.94 15.96-17.04 28.98-31.07 54.59-65.38 75.7-102.29 1.75-3.1299 1.0299-6.8999 2.5299-10.11 1.15-0.2799 2.9 0.41 3.51-1 22.6-42.95 40.5-89.54 43.57-138.37 1.39-10.35 0.47-20.81 0.75-31.21 0.36-6.0699-1.09-12.01-1.16-18.06-1.34-9.6899-1.98-19.58-4.8199-28.98-3.89-8.0499-9.53-15.11-14.4-22.57-26.54-38.84-55.36-76.23-87.16-110.85-4.6799-5.93-10.58-10.77-15.52-16.47-3.4099-4.56-7.7999-8.22-11.7-12.33-5.46-5.91-12.1-10.52-17.49-16.51-44.58-41.4-94.82-77.47-150.51-102.48-39.18-17.6-81.12-29.67-123.99-33.2-8.07-1.01-16.22 0.71-24.32 0.44-36.53 2.59-73.04 11.26-105.64 28.29-20.29 10.29-38.97 23.88-54.58 40.45-13.02 14.33-24.15 30.59-31.42 48.6-9.72 23.64-14.29 49.35-13.55 74.88 4.76-0.48 9.47-1.6 14.29-1.12 15.71 1.58 30.51 8.43 43.06 17.81 9.28 7.01 17.74 15.55 22.92 26.09 3.37 6.11 4.8799 13 7.53 19.43 8.24 21.27 18.1 42.47 33.46 59.6 5.32 6.71 12.34 11.85 19.39 16.6 17.36 11.31 38.76 13.57 58.99 13.38-13.4 11.1-30.97 17.04-48.36 16.22-21.68 0-42.07-9.15-60.33-20.12 7.8 8.01 15.6 16.1 21.63 25.58 3.83 6.4199 10.28 10.4 15.94 15.02 8.87 6.8601 18.49 12.84 28.85 17.17 4.18 1.79 9.04 2.29 12.5 5.5-7.89-0.92-15.31-4.11-22.31-7.71-10.28-5.2201-19.17-12.65-28.5-19.29 2.63 6.76 5.58 13.42 7.31 20.5 3.24 11.09 4 22.65 4.85 34.11 0.18 5.39-1.15 10.68-1.04 16.08-1.22 11.29-3.84 22.42-7.3 33.24-28.92-15.28-54.58-38.67-68.07-68.89-1.99-3.9-2.77-8.36-5.26-11.99-1.74 17.48-5.62 35.15-14.26 50.6-2.66 4.46-5.63 9.03-10.06 11.93-9.33 6.4601-23.79 0.38-26.55-10.41-2.67-9.8401 7.22-19.77 17-18.09 3.61 0.91 7.4 2.3401 9.78 5.3601 3.79 5.08 4.61 11.75 2.98 17.8 10.85-14.87 15.78-33.15 18.32-51.14 1.26-8.4399 0.9-17.06-0.54-25.44-1.33-7.67-1.06-15.47-0.73-23.2-2.34 6.3-3.63 12.97-6.21 19.2-4.86 13.03-12.3 25.09-21.87 35.17-12.73 12.15-29.7 20.75-47.53 20.89 7-7.5 14.88-14.23 20.62-22.81 7.59-10.28 12.16-22.63 13.7-35.27 0.04-3.36 0.14-6.7 0.6-10.02-0.82-5.0699-0.11-10.26-1.25-15.27-2.97-20.83-10.87-40.52-19.54-59.55-1.84-3.53-3.85-6.99-5.19-10.74-4.56-10.48-5.08-22.18-4.37-33.42 1.68-12.81 5.34-25.6 12.26-36.59 2.57-4.0701 6.04-7.52 8.35-11.75 0.66-8.98-0.48-18.06 0.92-27 1.54-21.32 7.37-42.26 16.41-61.6 19.3-40.66 55.23-71.78 95.99-89.86 22.18-10.16 46-16.35 70.07-19.94-6.17-0.54-12.44-0.54-18.56 0.42-30.65 1.77-60.97 7.69-90.7 15.28-5.03 1.47-9.51 4.3-13.91 7.07-18.51 12.58-36.96 25.41-53.8 40.19-4.12 3.88-7.79 8.27-12.36 11.64-8.89 6.69-16.21 15.14-24.08 22.95-3.38 4.58-7.81 8.22-11.25 12.73-14.12 16.18-26.97 33.48-38.25 51.76-23.33 37.87-40.17 80.23-45.63 124.54-1.53 9.3201-1.47 18.77-2.66 28.12-0.1 13.21-0.04 26.43 0 39.65 2.92 1.75 5.53 4.03 7.6 6.75 2.03 2.72 1.42 6.29 1.27 9.46-0.89 3.3301-3.79 5.5801-6.05 8.02 12.22 26.22 25.24 52.69 29.88 81.52 0.6 4.58 3.24 8.4301 5.95 12.04 7.6 11.53 16.39 22.23 25.6 32.51 3.19-0.0901 6.81 0.0699 9 2.76 3.64 2.6799 0.36 8.35 3.9 11.1 3.48 3.5499 7.03 7.0399 11.04 10.02 6.49 4.8099 11.97 11.01 19.15 14.87 9.87 5.5699 21.27 9.0299 32.68 8.34 7.2-0.62 14.49-3.0701 19.77-8.1901 6.68-5.9099 10.87-14.84 10.43-23.82 0.16-4.75-0.64-9.77-3.69-13.56-3.16-3.5199-8.77-5.8099-13.08-2.98-3.45 1.7001-2.55 6.1801-0.75 8.8101 1.98 2.49 5.53 2.45 8.35 3.4-2.64 0.37-5.51 1.89-8.04 0.35-3.06-1.46-4.48-4.9-4.97-8.05-0.01-3.64 2.43-7.08 6.03-7.95 4.44-1.9 9.42 0.12 13.09 2.7999 3.99 3.42 5.82 8.8501 6.06 14 2.2 17.18-10.83 34.76-27.99 37.42-9.31 2.17-18.73-0.45-27.83-2.36 6.08 4.0699 13.1 6.45 20.02 8.67 16.79 5 35.52 5.75 51.88-1.1801 19.37-8.42 30.69-31.69 25.52-52.14-1.3-5.63-3.47-11.31-7.53-15.53-4.24-3.84-10.29-5.9199-15.93-4.34-2.69 1.09-5.66 2.76-6.41 5.8-0.6 3.9299 1.29 8.08 4.3 10.59 3.3 2.5601 7.52 0.67 11.18 0.1899-2.72 3.51-7.56 5.51-11.78 3.5701-4.28-2.65-8.5699-7.04-7.74-12.52-0.59-4.1 2.35-7.4399 5.44-9.67 5.54-3.4099 12.87-3.0499 18.57-0.21 8.18 4.2001 12.36 13.23 14.08 21.86 3.51 16.39-1.42 34.74-13.72 46.35-9.08 9.5901-22.39 14.08-35.31 14.95-19.21 1.39-38.27-4.03-55.25-12.76 8.03 12.38 13.15 26.74 14.3 41.47 2.24 20.69-3.03 41.43-10.76 60.5-8.39-7.5599-17.43-14.38-25.81-21.94-14.59-12.9-27.13-29.48-31.1-48.9-3.64-21.57 0.88-43.41 5.81-64.41-2.96-1.74-6.82-2.99-8.05-6.54-0.48-2.6699 0.05-5.35 1-7.83-3.71-5.23-8.12-9.92-11.9-15.09-4.96-5.84-8.85-12.5-13.72-18.38-0.57 5.2-0.46 10.44-0.52 15.67-1.74 21.82-8.17 43.22-18.35 62.6-9.45 17.13-21.27 33.02-35.39 46.58-5.27 5.0601-10.07 10.63-15.89 15.08-2.58 2.4501-5.22 4.88-8.45 6.4601-8.74-18.87-16.69-38.12-24.1-57.55-7.62-20.86-12.24-43.01-11.74-65.26 0.93-8.14 1.3-16.39 3.67-24.28 2.75-9.0599 6.06-18.01 10.74-26.25 9.71-18.5 22.24-35.37 35.52-51.45 5.48-6.8199 11.79-12.9 17.17-19.81-2.39-4.27-4.56-9.53-2.29-14.3 1.36-4.1 5.69-5.74 8.99-7.96-1.04-5.24-0.84-10.61-0.86-15.92 0.13-9.02-0.1-18.04 0.03-27.06 0.05-4.36 1.19-8.62 1.03-12.98 3.87-48.44 20.83-95.39 46.32-136.6 12.64-20.77 27.68-40.02 43.86-58.1 2.5-2.51 5.09-4.93 7.25-7.74 6.41-7.95 14.84-13.82 21.76-21.27 12.39-11.02 25.07-21.75 38.45-31.58 9.08-6.94 18.76-13.04 27.89-19.89-8.3701 2.2-16.49 5.3199-24.68 8.11-1.78 0.37-2.42 2.48-4.1299 2.9-14.21 3.77-27.7 9.7401-40.92 16.08-34.2 16.02-66.8 35.45-97.13 57.94 6.06 7.62 6.41 17.87 6.54 27.18 0.2 11.59-2.37 23.07-6.54 33.85-5.13 12.52-12.04 24.59-22.02 33.89-6.29 6.0701-13.98 10.37-21.74 14.26-24.64 13.51-48.58 29.56-66.32 51.66-13.59 16.84-21.4 38.62-19.77 60.35-0.17 11.39 2.36 22.56 4.18 33.75-20-15.41-31.3-40.58-32.36-65.54-0.74-4.08-0.53-8.22 0.09-12.29 0.37-16.76 5.47-32.94 11.04-48.61-3.12 3.5099-4.95 7.9299-7.9 11.59-2.44 4.1-5.88 7.4399-8.75 11.23-5.41 6.28-12.5 11.16-16.44 18.63-5.9 10.87-11.35 22.05-15.16 33.85-3.26 10.22-5.42 20.97-4.47 31.74 1.19-2.96 1.67-6.2 3.24-9 2.91-4.03 7.32-7.3099 12.44-7.5399 9.01-1.25 18.78 5.0599 20.28 14.27 1.9 7.7001-2.17 16.26-9.39 19.56-7.39 3.39-16.13 0.63-22.4-3.9301-5.53-4.86-7-12.69-7.01-19.71 0.48-11.98 3.66-23.69 7.93-34.84 3.21-8.9 7.99-17.1 11.99-25.64-5.44 3.08-10.48 6.87-16.19 9.48-19.15 9.85-40.59 14.45-61.94 16-9.34-0.28-18.75 0.62-28.02-0.8199-4.75-0.0901-9.37-1.27-14.1-1.4701 7.86-27.44 22.47-52.92 42.33-73.44 10.28-9.55 21.62-18.07 34.28-24.23-9.52-0.4901-19.14 0.77-28.58-0.86-9.03-0.42-17.95-2.15-26.67-4.49-9.85-2.99-20.55-6.45-26.91-15.12-2.51-4.03-3.53-9.02-2.49-13.67 0-6.9901 5.07-13.37 11.68-15.37 6.62-2.52 14.29-0.07 19.19 4.7599 5.88 6.64 7.2 18.28 0.07 24.56-4.85 5.86-13.15 5.72-20.01 4.64 18.93 10.63 41.16 12.69 62.45 12.84 7.91-0.42 16.01 0.14 23.66-2.39 12.05-3.98 24.6-6.35 37.24-7.34-9.18-1.47-18.49-2.0699-27.56-4.24-17.84-3.91-35.12-11.17-49.63-22.38-14.67-12.12-26.92-28.2-31.14-47.05 7.34 5.15 14.53 10.56 22.42 14.87 15.18 9.18 32.84 14.97 50.72 14.26 7.61 0.26 15.2-0.79 22.63-2.4 30.17-6.86 57.07-23.25 82.01-41.01 16.47-11.48 37.46-13.85 57-12.33 16.06 1.74 32.19 6.38 45.43 15.91 14.67-10.14 29.09-20.7 44.49-29.74 11.32-6.86 22.59-14 34.87-19.05 0.62-1.33 0.42-3.53 2.22-3.89 3.88-1.17 7.79-2.37 11.35-4.35-3.12 0.63-6.08 1.8-9.15 2.58-3.85 0.21-7.65 0.77-11.39 1.6899-10.93 2.76-22.23 3.28-33.39 4.4301-12.84 0.5099-25.75-0.79-38.25-3.78-31.87-7.82-58.98-33.15-68.19-64.76-4.25-13.73-4.58-29.43 2.44-42.32 8.75-14.75 27.27-23.54 44.14-19.2 8.87 2.55 17.04 8.33 21.59 16.46 3.56 6.16 4.68 13.91 2.09 20.64-3.15 7.3-9.91 12.26-17.18 15.02 3.89-3.16 8.12-6.25 10.32-10.91 3.65-6.54 2.72-15.18-2.21-20.8-3.64-4.16-9.29-6.55-14.79-6.35-8.46-0.46-16.42 4.06-22.25 9.87-3.59 4.54-6.53 10.42-5.3 16.36 0.78 11.9 9.44 21.08 17.91 28.56 5.32 4.06 11.19 7.64 17.76 9.22 7.29 0.1 14.67 0.64 21.86-0.81 8.31 0.02 16.93-1 24.91 1.9301 8.11 2.74 14.83 8.28 21.27 13.75 9 8.52 20.61 14.29 32.88 16.15 7.31 0.27 14.7 0.5 21.93-0.8 8.4-0.04 16.99-0.87 24.72-4.4 11.17-4.74 22.87-8.08 34.13-12.54-3.65-1.98-7.89-1.03-11.85-1.24-15.65-0.31-31.88 1.56-46.86-4.09-9.14-3.64-18.15-8.95-23.73-17.27-4.27-5.6-5.71-12.77-6.4-19.61-1.47-10.74-0.73-21.78-3.78-32.3 11.12 2.22 22.53 2.12 33.63 4.46 13 2.9 22.73 14.09 26.5 26.5 3.1801 10.42 5.3 21.81 12.84 30.16 6.42 6.34 15.19 9.62 23.74 11.94 8.17-1.89 16.24-4.17 24.3-6.47 9.46-2.44 19-4.52 28.59-6.41 24.08-5.06 48.61-7.43 73.12-8.85 11.35 0.03 22.71-0.09 34.07 0.07 4.98 0.67 10 1.02 15.04 0.96 13.79 1.45 27.64 2.7 41.23 5.63 9.8799 1.6 19.5 4.57 29.3 6.4-2.12-1.15-4.46-1.86-6.42-3.26-3.7-2.11-5.65-6.24-6.81-10.16-1.7-8.65 1.22-17.79 6.89-24.41 5.05-5.44 12.54-7.05 19.14-9.65-12.08-3.51-25.43-1.72-36.41 4.3199-7.8199 3.61-13.99 10.09-22.17 13.02-2.75 0.27-6.08 0.65-8.1-1.68-2.81-2.91-4.88-7.52-2.82-11.42 2.75-8.3 11.66-11.27 18.47-15.35-7.7-2.4-16.21-3.86-24.02-1.17-7.85 2.73-14.66 8.92-17.24 16.92-1 4.29 1.91 8.27 5.29 10.57 2.04 0.42 4.16 0.2 6.24 0.21 0.76-0.81 1.54-1.6 2.34-2.37 0.05-2.59 0.1-5.17 0.22-7.75 1.93 1.76 3.97 3.45 5.52 5.59 1.27 3.97-1.36 7.74-3.1 11.13-2.83 3.57-6.24 7.06-10.79 8.26-7.91 2.78-16.58-2.2-20.71-8.99-3.66-5.19-3.42-11.78-3.0099-17.8 1.6-10.8 7.81-21.22 17.57-26.48 15.97-9.84 35.94-10.47 53.74-5.98 21.83 5.39 42.12 16.25 59.33 30.63 3.87 3.67 7.39 7.73 11.48 11.17-8.77-18.19-24.95-31.73-42.54-41.05-20.75-10.19-43.16-16.21-65.23-22.79-21.6-6.36-43.05-13.99-62.37-25.72-5.53-3.43-11.45-6.27-16.51-10.39-3.96-2.85-7.76-6.47-12.67-7.48-5.17 0.01-10.42 1.41-14.88 4.06-7.25 4.76-10.8 13.1-17.24 18.72-4.99 5.89-13.24 7.87-20.66 7.09-5.58-0.95-11.3-1.9-16.31-4.66-6.72-3.71-13.51-7.3-20.46-10.55-4.03-1.9301-8.47-2.61-12.65-4.05 5.78-1.5699 11.26-4.24 16.02-7.88 3.77-3.23 6.84-7.27 11.06-9.97 4.74-3.7 10.66-5.29 16.43-6.54 5.6-0.53 11.24-0.22 16.85-0.18 14.49 1.3 28.13 6.68 41.48 12.11-9.1201-8.42-19.19-15.86-27.76-24.9-10.9-11.45-25.31-18.9-40.16-23.88-4.26-0.82-8.66-0.27-12.97-0.32 7.09 3.16 14.94 6.14 19.36 12.94 1.44 2.25 2.28 6-0.31 7.74-2.44 2-5.9 1.54-8.42-0.02-6.26-2.76-10.1-8.69-15.21-12.95 1.26 5.04 3.26 9.97 3.14 15.26 0.3 4.99 0.11 11.77-5.17 14.15-1.9901-0.94-4.86-1.27-5.4-3.83-2.84-7.51-1.46-15.77-1.21-23.6-4.61 7.69-8.67 16.25-16.53 21.2-1.62 1.38-3.82 0.99-5.76 1.12-1.15-2.37-2.11-5.11-0.84-7.63 3.47-7.36 9.79-12.68 15.25-18.49-8.82 2.71-18.76 8.19-27.72 2.9 0.14-2.86 1.25-5.51 2.34-8.11-8.66 5.15-17.74 11.67-20.61 21.89-1.62 3.35 0.25 6.89 2.11 9.69 2.59 3.17 7.23 3.48 10.9 2.35 3.88-1.97 5.12-6.4 4.5-10.45-1.12-0.78-2.25-1.54-3.37-2.29-2.06 1.34-3.99 2.85-6.02 4.2401 0.8-1.92 1.43-4.08 3.1-5.45 2.79-2.66 8.01-1.15 9.17 2.44 2.13 5.24-1.33 11.24-5.93 13.89-5.46 3.08-13.58 1.18-16.28-4.72-1.9-3.49-2.16-7.72-0.79-11.44 2.03-6.82 7.23-11.94 12.4-16.52 8.06-6.34 18.18-9.45 28.23-10.78-2.56-3.54-7.37-4.63-9.61-8.5-1.9901-2.19-2.9-5.65-1.14-8.23 1.77-1.88 4.54-2.14 6.99-1.8 7.25 2.76 12.48 8.77 17.38 14.51-1.09-5.51-3.42-10.83-3.31-16.53-0.1-4.52-0.18-9.74 3.4-13.08 2.1 0.21 4.75-0.46 6.31 1.4 1.79 3.2 2.54 6.95 2.43 10.6-0.02 5.17 0.16 10.37-0.7 15.49 2.26-2.91 4-6.17 5.82-9.36 3.28-5.53 7.83-10.69 13.96-13.06 3.29-0.16 4.87 4 3.92 6.79-2.74 8.08-10.13 12.96-15.25 19.38 8.15-3.18 16.76-5.6 25.59-5.27-3.28-4.8199-3.47-10.81-5.01-16.26-3.23-12.22-8.87-24.12-17.98-33.06-9.96-10.64-24.08-16.7-38.38-18.55-4.26-0.22-8.52-0.04-12.78-0.04-1.52 1.7-3.25 3.63-2.91 6.11 0.43 5.52 2.04 11.69-1.55 16.56-3.58 4.14-9.6 5.03-14.77 4.63-4.68-0.52-7.19-5.28-7.85-9.48-0.64-5.43 1.3-10.9 4.21-15.42 5.66-7.78 15.76-10 24.74-11.29 14.15-1.08 28.49 3.54 39.81 12 8.99 6.88 16.42 15.6 22.14 25.35 0-4.38-1.09-8.71-2.71-12.75-2.33-4.18-0.74-9.09-1.48-13.6-2.21-11.45-3.92-23-6.52-34.38-3.09-14.21-8.4-28.2-17.23-39.85-9.33-11.17-21.06-20.13-33.6-27.39-7.83-3.56-16.52-4.85-24.24-8.75-8.01-3.02-14.75-8.9-23.23-10.78-12.81-3.2-25.5-6.93-38.42-9.72 7.9301 3.81 17.46 7.4 20.74 16.41 2.27 7.5 0.46 15.69-2.77 22.66-6.8-2.87-13.28-7.2-17.49-13.37-2.35-3.39-1.99-7.62-2.62-11.49-0.96-5.1 0.33-10.44-1.54-15.39-7.26-2.15-14.42-4.89-21.93-6.04-8.33 0.14-16.6-1.04-24.93-1.14-9.92-1.48-20.07-2.17-29.64-5.34-8.5-3.5-15.27-9.97-22.38-15.6-3.93-3.2-9.32-3.13-14.08-3.99-7.59 0.31-15.37 1.41-22.32 4.67-6.04 2.54-10.82 7.75-13.3 13.76-0.93 3.67-1.35 8.67 2.48 10.87 2.56 2.03 5.82 0.76 8.33-0.63-0.17-2.35-0.7-4.65-1.16-6.95 1.46 1.63 3.99 2.94 3.87 5.43 0.64 5.23-5.36 8.32-9.86 7.95-8.35 0.38-13.81-9.22-11.6-16.69 1.4-7.06 6.36-13.17 12.91-16.12 11.18-6.43 24.64-7.49 37.13-5.12-4.08-5.13-9.78-8.55-14.12-13.42-9.21-8.51-18.75-16.67-28.74-24.25-15.76-11.63-34.15-20.65-53.94-22.04 0.6-0.95 1.11-2.08 2.31-2.37 14.37-6.34 30.85-9.42 46.27-5.24 8.61 2.07 16.35 6.52 23.85 11.1 8.57 5.58 15.93 12.71 23.65 19.37 3.35 3 5.99 6.88 9.98 9.11 0.52-5.24 0.87-10.77-1.4-15.68-2.79-6.67-9.09-10.77-14.79-14.74 7.28 0.04 14.52 2.82 20.03 7.57 8.99 8.78 12.17 21.3 17.76 32.16 7.69 15.7 19.87 29.79 36.08 36.97 10.92 3.89 22.01 7.4 33.18 10.48-3.34-2.43-7.3-3.77-10.81-5.9-23.3-12.97-44.38-31.35-56.88-55.21-7.54-14.45-10.03-32.07-4.48-47.62 1.76-5.11 5.58-9.01 9.09-12.95 7.3-6.7 17.15-11.97 27.34-10.29 6.18 0.65 12.3 4.05 15.46 9.5 2.33 3.64 1.96 8.16 1.6299 12.27-1.79 6.94-7.07 12.84-13.89 15.18-2.47-1.01-4.96-1.99-7.2-3.46 3.17-1.44 8.32-2.25 8.29-6.7 0.53-3.1-2.44-4.95-4.45-6.72-4.7-2.56-10.62-0.28-13.98 3.46-6.32 7.58-8.7 18.53-5.31 27.9 2.05 4.79 4.54 9.69 8.76 12.94 1.03-7.18 1.39-15.18 6.64-20.78 2.79-3.58 7.86-4.64 12.14-3.71 3.81 0.63 6.89 4.14 6.92 8.03-0.86 10.47-5.17 20.33-5.6 30.87-0.61 12.73 4.35 25.91 13.74 34.65-0.7-3.22-1.34-6.46-1.85-9.72-0.91-9.4 3.64-19.04 11.4-24.41 6.91-5.13 17.02-7.54 24.69-2.66 8.47 4.43 9.63 17.73 2.43 23.82-5.18 4.59-15.3 3.46-17.81-3.51-2.53-4.53 1.57-8.95 4.46-12.12-3.31-0.13-6.82-0.37-9.68 1.62-12.01 7.19-13.51 26.6-2.98 35.75 4.91 5.01 11.43 7.9 17.17 11.79 2.26 1.43 4.2 3.55 6.95 4.02 8.55 2.2 17.1 4.41 25.61 6.8-3.3-5.02-7.35-9.92-8.29-16.04-0.27-4.41 0.35-8.89-0.7-13.23-0.75-5.59-3.16-10.73-5.68-15.7 8.98 3.84 18.53 6.24 28.25 7.09 8.64 0.86 17.32 3.37 24.35 8.63 5.11 3.26 8.71 9.06 8.7 15.21 0.63 9.08-3.55 18.35-0.23 27.24 2.67 7.35 10.18 10.8 16.29 14.78 5.26 4.4 11.01 8.24 15.7 13.28 13.14 12.74 20.15 30.36 24.09 47.93 4.11 19.64 7.1299 39.5 10.79 59.23 3.11 17.88 6.5 36.22 15.14 52.37-2.02-7.65-5.14-14.99-6.8-22.75-1.37-6.54-2.8199-13.09-3.2599-19.77-1.21-5.72-0.26-11.64-1.4901-17.36-0.48-15.63 0.13-31.27-0.27-46.89-1.15-9.24-2.66-18.63-6.9-27.03-2.9-6.25-7.47-11.48-11.7-16.83 11.29 2.59 21.96 8.17 30.41 16.11 4.12 4.67 8.01 9.69 10.57 15.42 4.1 8.17 5.75 17.22 8.18 25.95 1.39-3.69 1.38-7.66 1.73-11.52 1.51-9.91 3.69-20.07 9.33-28.54 5.26-8.18 11.84-16.33 21.39-19.53 6.09-2.55 13.25-0.26 17.79 4.22 4.65 5.63 3.1 14.58-2.1 19.32-2.07 1.66-4.83 1.67-7.31 1.3-2.11-2.04-2.33-5.12-3.07-7.79 1.31 1.72 2.61 3.44 3.94 5.17 2.21-1.05 5.0099-1.88 5.58-4.62 1.9-6.05-4.88-11.8-10.66-10.41-7.87 1.12-15.11 5.75-19.55 12.33-7.44 9.01-11.43 20.38-13.24 31.81-0.9901 7.7-0.27 15.46-0.46 23.19-0.62-1.68-0.94-3.48-1.85-5.03-0.17 2.16 0.22 4.31 0.43 6.46-1.36 8.45 1.14 16.89 0.59 25.39 4.36-3.96 7.88-8.97 9.79-14.56 2.54-7.31 0.75-15.08-0.77-22.39 4.16 5.03 7.28 11.1 7.89 17.68-0.43 11.49-6.56 21.55-11.02 31.84-6.41 13.65-10 29.17-7.04 44.17 1.75 10.51 5.6 20.7 11.35 29.67 8.91 9.52 19.53 17.29 30.14 24.82 22.04 14.87 46.25 27.02 72.1 33.58-7.04-5.77-14.78-10.96-20.29-18.31-5.91-6.35-10.88-13.59-14.62-21.42-4.5-11.16-14.51-18.78-19.8-29.49-8.14 0.45-16.86 0.68-24.13-3.61-6.66-3.22-10.71-9.84-13.65-16.35-4.1-9.84-4.98-20.61-6.08-31.1 8.43 6.35 19.38 6.75 29.02 10.22-2.7-14.67-3.78-29.69-2.5-44.57 2.1-25.76 10.11-51.57 25.47-72.58 7.77-10.21 16.97-19.67 28.39-25.77 8.85-5.33 19.32-8.33 29.67-7.35 11.31 1.47 19.75 14.25 15.97 25.16-2.22 8.26-8.91 15.22-16.96 17.98-5.29 2.48-11.69-0.7-14.46-5.48-4.42-8.32 1.29-19.62 10.3-21.77 4.01-1.84 7.85 1.47 10.56 4.13-4.27 0.44-9.02-0.91-12.8 1.7-3.21 1.5-4.57 5.14-5.38 8.35 0.77 3.97 4.14 8.07 8.6 7.06 6.52-2.29 12.22-8.28 12.57-15.42 0.16-3.2-0.32-6.87-3.09-8.92-4.35-3.41-10.13-2.81-15.29-2.6-14.32 1.67-26.55 10.56-36.25 20.73-5.36 6.68-11.23 13.03-15.48 20.53-12.81 20.81-18.21 45.5-18.28 69.74 0.53 7.84 1.17 15.69 2.54 23.43 0.94 3.96 1.2 8.6 4.71 11.29 9.26 8.47 11.58 21.3 14.94 32.8-1.2 0.72-2.4 1.44-3.59 2.17 2.33 4.11 4.87 8.11 7.72 11.89-0.33-5.23-2.09-10.21-3.13-15.32 0.87-0.87 1.73-1.75 2.61-2.61 0.04 3 0.71 5.93 1.97 8.66 1.27-16.36 3.49-34.65 15.98-46.63 8.94-9.21 22.15-11.71 34.41-12.83-2.49 15.12-6.41 31.36-18.02 42.24-9.8 8.27-22.66 11.71-32.32 20.23 1.05 6.49 4.1 12.39 6.36 18.51 7.45 19.43 22.79 34.81 40.15 45.75 10.6 5.78 22.6 8.2 34.09 11.6-5.12-4.52-9.79-9.5-14.58-14.34-3.32-0.01-6.52 0.96-9.81 1.04-7.76-0.39-15.75-2.95-21.28-8.63-6.89-6.39-10.16-16.07-9.75-25.33 0.59-10.89 6.27-20.75 13.77-28.4 1.01-8.73 2.04-17.69 6.14-25.61 3.51-7.01 8.41-14.26 16.18-16.89 6.18-2.41 14.38-1.24 18.38 4.46 5.15 6.31 2.96 16.86-4.02 20.92-3.03 1.86-7.12 3.85-10.48 1.6-2.79-1.5099-5.06-5.33-3.38-8.39 1.13-2.7 3.7-4.75 6.67-4.9301-1.43 1.8101-3.13 3.42-4.34 5.39 0.27 2.73 3.18 5.48 6.06 4.94 7.53-1.24 11.18-11.48 6.31-17.34-4.53-4.68-12.71-5.32-17.87-1.31-10.51 7.7599-14.82 21.27-15.49 33.82 4.92-2.3199 9.76-5.04 15.16-6.09 7.07-0.69 14.59-0.8 21.02 2.72 8.29 3.91 14.27 11.87 16.22 20.77 2.28 10.66-0.18 22.24-6.73 30.98-5.09 6.21-11.21 11.77-18.71 14.87 6.5 6.0601 12.17 13.09 19.69 17.98 6.16 4.47 13.67 6.25 20.4 9.61 18.79 9.42 35.68 23.7 45.39 42.6 1.39 2.5 2.2 5.7 5.1 6.92 6.36 4.39 13.69 6.98 20.54 10.47 10.14 5.13 20.4 10.05 30.32 15.6 18.51 9.19 35.55 21.03 53.77 30.76-12.9-16.8-25.34-33.98-36.44-52.03-21.04-34.29-38.19-71.15-48.99-109.98-5.62-20.71-9.13-41.98-10.64-63.35 0.26-5.71-1.11-11.31-0.97-17.01-0.7599-41.35 5.03-82.74 16.54-122.47 1.18-4.22 1.42-8.7 3.32-12.7 2.81-6.15 4.49-12.72 6.92-19.02 2.18-6.88 6.11-13.37 6.34-20.74 1.22-6.72 0.57-13.59 1.73-20.32 0.16-11.18-3.54-22.41-10.41-31.26-5-6.34-11.01-12.06-14.6-19.38-4.88-9.6-4.53-20.78-3.02-31.15 0.24-6.55 0.99-13.54-2.32-19.52-5.7-10.82-15.04-20.38-26.88-24.15-4.62-0.65-9.78-1.14-13.98 1.33-7.73 4.59-12.87 13.33-12.79 22.36-0.44 8.94 8.15 17.2 17.1 16.24 6.89-0.24 12.22-5.41 16.21-10.54-2.66 6.25-7 12.43-13.59 14.9-3.2 1.17-6.74 1.87-10.07 0.85-11.12-2.3-19.65-12-22.16-22.84-1.34-8.42-0.26-17.44 4.58-24.65 5.18-8.84 14.43-14.99 24.56-16.46 14.22-2.13 28.75 1.91 41.16 8.84 21.77 12.21 37.68 34.5 41.78 59.18 2.22 10.32 1.49 20.91 1.43 31.39-1.02 4.69-0.75 9.52-1.69 14.22-0.11 3.85-1.31 7.59-1.2 11.46 1.83-2.59 2.12-5.81 2.84-8.8 2.2299-10.21 3.57-20.58 4.97-30.92 0.5299-12.68 2.3099-25.45 0.5199-38.11-1.2899-24.27-7.71-48.39-19.25-69.82-10.2-16.73-22.04-34.42-40.82-42.25-12.24-5.13-26.65-8.43-39.29-2.76-10.5 5.41-17.61 19.07-12.49 30.43 2.53 6.51 11.11 10.34 17.26 6.35 4.03-2.83 4.52-8.17 6.97-12.13 0.41 4.51 0.49 9.3-1.7 13.41-3.62 8.36-14.95 12.57-22.94 7.9-8.62-4.87-13.19-14.52-15.08-23.89-2.09-8.73-0.32-18.16 4.17-25.85 5.82-10.31 16.6-16.89 27.67-20.28 11.27-2.8 23.53-2.53 34.3 2.08 17.97 7.29 30.83 22.74 41.62 38.26 8.49 13.29 15.9 27.41 20.42 42.57 3.75 12.31 5.1699 25.18 6.2 37.95 1.1901 7.34 0.3199 14.83 0.76 22.24 0.5 25.89-5.26 51.55-14.18 75.75 1.21-0.64 2.41-1.45 2.97-2.77 11.53-22.47 24.95-43.98 40.18-64.13-5.59-8.54-9.63-18-12.04-27.91-2.9801-11.02-2.4901-22.56-1.8401-33.83 1.14-5.62 2.17-11.3 4.1901-16.68 3.9-9.48 10.72-17.29 16-25.97 6.87-10.56 12.81-21.71 17.77-33.29 5.7799-13.29 9.0199-27.66 9.6899-42.12-0.39-7.84-1.0699-15.72-3.66-23.2-4.49-14.78-13.36-27.63-22.3-40.03 6.7899 1 13.06 4.05 18.98 7.4 18.81 10.97 31.92 29.91 38.46 50.42 3.9601 11.13 5.1 22.93 7.36 34.45 0.2101-12.13 3.38-23.94 6.91-35.47 0.91-5.85 0.0699-11.86 1.05-17.72-0.86-6.35-0.26-12.81-1.42-19.14-1.41-11.56-4.37-23.14-10.14-33.33 0.8201 4.67 1.04 9.88-1.65 14.01-2.9199 5.15-9.2999 8.08-15.07 7.25-9.7614-1.4101-16.751-12.8-12.711-22.01m28.56 142.57c-16.6 17.37-30.96 37.14-40.75 59.18-7.89 18.08-14.28 36.87-19.68 55.81 1.1799-0.09 2.1599-0.58 2.95-1.46 6.99-7.01 14-14.01 21.01-21.01 3.48-3.22 5.95-7.35 9.5-10.53 21.52-25.84 36.96-56.51 46.19-88.79 1.26-5.25 3.38-10.39 3.5901-15.81-7.8201 7.31-15.2 15.08-22.81 22.61m-45.73 4.19c-5.35 8.91-10.2 18.13-14.5 27.59-5.29 12.22-8.28 25.39-9.37 38.63-1.49 7.1 0.0499 14.46-1.1801 21.61-0.12 4.42-0.74 8.96 0.51 13.29 6.1-8.71 11.55-17.89 16.13-27.5 8.1801-16.13 12.17-34.09 13.91-51.98 0.05-9.83 0.11-19.65-0.05-29.48-2.5699 2.03-3.7499 5.15-5.4499 7.84m29.7 73.8c-10.84 12.29-20.55 25.66-28.59 39.95 8.05-4.21 16.55-7.52 24.38-12.13 8.75-4.54 16.67-10.5 24.16-16.85 14.44-13.18 27-28.73 35.44-46.44-19.91 9.22-40.05 19.43-55.39 35.47m211.67-1.33c-6.53 4.49-12.28 9.99-18.3 15.11 20.75-1.51 41.41-9.36 56.85-23.54 3.0299-2.05 5.5299-4.78 7.9099-7.54-16.38 1.68-32.94 6.25-46.46 15.97m40.08 5.13c-12.44 1.73-24.66 4.98-36.35 9.58-7.08 2.88-14.47 5.31-20.96 9.39 2.66 1.05 5.52 1.09 8.36 1.03 4.6899-0.12 9.27 1.27 13.98 1.02 24.89 0.88 49.78-5.18 72.16-15.99 2.41-1.2 5.1699-1.94 7.15-3.86-6.24-1.83-12.74-0.87-19.11-1.49-8.4299-1.42-16.79 0.5-25.23 0.32m-51.65 27.15c1.9199 2.53 5.5499 2.84 8.2799 4.24 19.91 8.95 42.6 10.02 63.73 5.32-1.6799-2.01-4.2999-2.56-6.58-3.52-6.33-2.79-12.97-4.83-19.66-6.52-15.07-3.64-30.64-1.33-45.77 0.48m116.35 55.12c12.93 5.69 27.95 6.42 41.44 2.22-0.36-0.33-1.09-0.99-1.45-1.32-12.81-4.79-27-5.15-39.99-0.9m-2.11 4.82c16.7 12.03 37.29 18.77 57.88 18.85-13.76-10.06-30.08-17.14-47.22-18.26-3.4599-1.13-7.1099-0.99-10.66-0.59m-412.08 12.16c-0.66 3.83-3.34 7.12-2.46 11.21 1.39-2.17 2.87-4.29 4.1-6.56-0.01-1.69-0.16-3.37-0.26-5.04-0.35 0.1-1.04 0.3-1.38 0.39m-425.41 9.43c0.82 2.4 1.53 4.87 1.83 7.4 0.44 4.69-1.05 9.88 2.14 13.9 5.77 9.45 17.79 10.29 26.23 16.18-1.6-3.16-3.17-6.57-2.42-10.21 0.3799-5.19 3.3-11.57-0.95-15.89-6.85-7.68-18.07-7.18-26.83-11.38m559.56 24.58c15.38 6.94 31.45 13.02 48.35 14.72 3.38-0.23 6.5901 1.08 9.97 1 12.87 0.29 25.6-1.54 38.12-4.47-1.92-1.96-4.77-2.35-7.16-3.46-17.08-7.03-35.29-12.41-53.9-12.11-11.86 0.83-23.75 1.74-35.38 4.32m-6.04 9.7c11.76 9.56 24.39 18.17 37.46 25.87 28.51 16.08 60.89 24.76 93.36 27.15-8.14-6.81-17.19-12.51-25.98-18.46-17.87-12.03-37.74-21.04-58.64-26.31-15.23-3.6-30.68-6.55-46.2-8.25m1.13 13.72c9.02 13.76 19.58 26.75 32.51 37.04 13.35 10.86 28.96 18.66 45.18 24.29-8.86-13.28-19.32-25.53-31.27-36.14-13.94-10.92-30.08-18.59-46.42-25.19m-488.56 141.09c-1.7 4.87-0.52 10.02 0.0699 14.98 0.59 2.29 0.85 4.8199 2.52 6.67 0.23-2.24 0.43-4.47 1.01-6.64 0.97-4.57-0.57-9.09-0.94-13.61-0.8899-0.47-1.7799-0.94-2.6599-1.4m17.25 13.6c-2 3.58-4.73 6.91-5.62 10.99 5.98-5.45 12.54-10.99 15.51-18.76-4.3399 0.89-7.2099 4.56-9.8899 7.77m-40.63 1.32c3.5 6.89 10.76 10.59 17.71 13.12-1.07-2.53-3.4-4.16-5.19-6.14-3.22-3.6501-7.41-6.9701-12.52-6.9801m49.45 12.57c-3.31 1.2-7.25 1.7401-9.5699 4.65 4.46 0.12 8.83-1 13.29-0.96 3.56-0.56 7.27-1.89 9.45-4.95-4.4401-0.24-8.9201-0.18-13.17 1.26m7.36 8.96c6.45 2.42 12.59 5.53 18.76 8.57-2.86-5.04-6.25-9.81-8.34-15.25-3.43 2.3-6.64 4.94-10.42 6.68m-61.26 2.99c-1.07 0.86-2.5 1.77-2.27 3.36 7.74-0.02 15.71-1.66 22.46-5.52-6.83-0.6-13.64 0.21-20.19 2.16m41.11 1.3c4.99 5.67 10.14 12.31 18.1 13.62-1.07-2.89-2.79-5.5699-5.38-7.31-3.98-2.56-7.96-5.49-12.72-6.31m-25.74 12.12c-3.55 2.98-5.49 7.26-6.79 11.62 7.31-3.91 11.96-11.36 15.31-18.72-3.61 1.1699-5.69 4.7399-8.52 7.0999m17.39-7.16c0.36 7.71-1.98 16.09 1.55 23.31 2.9-4.1 3.01-9.4 1.64-14.08-0.83-3.15-1.14-6.57-3.19-9.23m198.31 18.54c-0.8 0.77-1.6 1.55-2.39 2.34-0.02 1.42-0.1 2.86 0.08 4.3 1.19 2.08 3.78 1.14 5.75 1.38 0.81-1.35 1.67-2.68 2.26-4.14 0.0699-1.7-1.51-2.71-2.38-3.94-1.12-0.01-2.23 0.01-3.32 0.06m-158.04 22.29c-4.14 3.35-7.14 8.23-12.37 10.09 0.08 0.3 0.24 0.88 0.32 1.17 7.6 0.8199 13.98 5.72 21.53 6.66 4.26 1.09 8.96-0.33 12.39-2.96 2.55-2.9 4.6-6.2 6.6-9.48 2.24-3.38 6.5-3.81 9.89-5.41-5.69-2.21-11.68-3.41-17.67-4.37-7.04-0.31-14.88-0.3-20.69 4.3m-121.38 100.1c7.0601 19.1 20.83 36.85 40.29 44.31 5.89 1.99 11.97 4.21 18.25 4.21-0.41-0.19-1.24-0.58-1.65-0.78-12.12-3.13-23.72-8.65-33.3-16.75-2.79-1.81-4.94-4.35-6.87-7-5.49-6.4-9.87-13.65-14.19-20.85-0.67-1.19-1.53-2.26-2.53-3.14m333.67 4.19c-5.4 2.86-9.53 7.79-11.53 13.56-0.93 3.35 1.04 6.29 2.47 9.15 1.63-2.55 3.04-5.48 5.73-7.1 4.7-1.57 10.33 0.25 12.69 4.74 2.55 4.61 1.37 10.93-2.67 14.33-3.39 3.99-9.01 4.63-13.91 4.84 11.71 3.69 23.61 7.04 35.14 11.36 69.82 25.71 132.76 67.66 188.19 116.75 2.9301 3.45 6.92 5.7 9.99 9 3.33 3.35 6.55 6.82 10.39 9.6 10.02 9.64 19.8 19.53 29.44 29.54 4.03 5.55 9.7201 9.63 13.74 15.21 13.88 14.88 26.76 30.62 39.59 46.42 4.63 5.3199 8.36 11.5 13.37 16.44-1.84-5.45-4.8301-10.43-6.97-15.76-16.99-33.17-38-64.43-62.89-92.15-3.4701-4.78-8.3-8.36-11.66-13.24-11.46-11.57-22.92-23.14-34.57-34.51-4.6101-3.33-8.1901-7.84-12.84-11.11-4.33-4.4-9.12-8.28-13.89-12.17-23.79-20.16-49.18-38.38-74.85-56.08-31.07-21.15-63.36-40.45-96.05-58.98-5.46-4.0599-13.29-3.2099-18.91 0.1601m782.22 124.24c-19.24 7.02-36.56 18.62-51.25 32.8-6.83 5.63-13.02 12.01-18.92 18.6 7.8201-1.5 15.29-4.4 22.92-6.65 20.07-6.61 38.22-18.12 54.15-31.84 3.2-3.51 7.08-6.27 10.51-9.53 3.4299-4.36 7.5-8.19 11.1-12.42-9.72 2.26-19.2 5.47-28.51 9.04m-1256 10.97c-31.96 1.48-61.35 16.5-87.37 34.14 8.06-0.31 16.05 1.7401 24.1 0.65 4.68-1.26 9.6-0.07 14.33-1.06 24.68-2.73 48.9-10.43 70.01-23.63 6-3.86 12.42-7.14 18.09-11.49-6.36-0.44-12.73 0-19.09-0.19-6.61 1.53-13.49-0.15-20.07 1.58m1321.1 7.92c-4.3799 0.63-8.8799-0.35-13.18 0.86-23.72 1.84-47.32 7.31-69.12 17.03-10.15 4.24-19.85 9.46-29.67 14.41-7.7999 4.7-16.08 8.62-23.52 13.91 5.3 0.14 10.64 0.23 15.91-0.58 5.29-0.75 10.72 0.18 15.97-1.08 24.05-1.49 47.62-8.09 69.93-17.1 18.29-7.74 36-17.03 52.27-28.43-6.1901 0.51-12.51-0.46-18.59 0.98m-1377.7 50.47c-17.08 12.74-32.14 27.84-46.96 43.09-1.77 1.7799-3.65 3.5099-4.8 5.7899 8.8-1.4299 17.29-4.33 25.87-6.75 34.66-11.43 67.67-28.74 95.41-52.58 4.11-4.61 9.38-7.92 13.49-12.51 4.72-4.96 10-9.42 14.21-14.84 3.23-3.63 6.84-6.91 9.96-10.63-37.54 11.36-75.83 24.05-107.18 48.43m93.81-20.12c-12.82 8.94-25.62 18.25-36.11 29.88-11.28 12.35-19.71 27-26.98 42-2.39 5.12-5.39 9.99-7.23 15.35 22.2-10.95 41.79-27.06 57.45-46.17 12.26-15 20.68-32.71 28.14-50.45-5.45 2.52-10.1 6.39-15.27 9.39m1007-9.54c1.8101 10.71 4.66 21.55 2.9501 32.47-1.28 10.13-5.5901 19.48-10.21 28.45 2.28-1.64 3.4801-4.29 5.0601-6.53 5.12-8.75 7.6799-18.9 7.99-28.98-1.0501-8.58-1.3001-17.8-5.7901-25.41m149.52 36.78c3.67 2.19 8 2.68 12 4.0699 6.37 1.75 12.74 3.65 19.28 4.7401 17.42 3.55 35.41 1.9 52.69-1.59 8.41-2.08 16.98-3.98 24.93-7.48-14.1-4.77-28.66-8.46-43.46-10.11-5.37-0.06-10.74 0.03-16.09-0.0099-16.78 1.4599-33.09 6.1499-49.35 10.38m-297.93 2.42c3.0399 4.08 7.3099 7.1 10.1 11.43 13.32 14.11 18.85 33.6 20.46 52.52l0.8201 0.6001c-0.79-7.6001-0.8-15.29-2.6201-22.75-2.2-8.8301-5.9199-17.36-11.35-24.68-4.9201-6.47-10.4-12.85-17.41-17.12m-718.69 27.71c0.48 7.2001 1.87 14.33 3.05 21.48 4.2 22.75 9.34 45.62 19.38 66.61 8.68 18.18 19.9 35.03 31.8 51.25 2.47 3.3199 4.5601 7.0099 7.82 9.6599-2.28-28.54-8.93-56.86-20.35-83.2-8.34-20.3-20.75-38.61-33.85-56.09-2.52-3.32-4.68-6.96-7.85-9.71m15.89 1.1c7.56 18.79 16.64 37.25 29.49 53.04 12.06 13.41 25.96 25.13 41.15 34.85-3.45-11.59-8.76-22.58-14.97-32.93-9.03-14.82-20.22-28.45-33.81-39.29-7.08-5.4701-14.02-11.34-21.86-15.67m-27.67 5.96c-0.07 3.85-1.1 7.5599-1.53 11.37-1.5 8.61-1.84 17.34-2.6 26.04-0.64 21.04 4.78 41.78 12.87 61.08 1.77 3.89 2.93 8.3099 5.75 11.57 2.44-12.4 4.69-24.91 4.31-37.59-0.09-4.73 0.42-9.53-0.79-14.16-0.59-10.48-3.02-20.8-6.25-30.77-3.15-9.4699-6.77-18.88-11.76-27.54m999.67 76.69c4.48 10.69 8.03 21.86 14.24 31.75 9.99 15.91 24.18 29.16 40.64 38.22-3.29-9.9199-7.27-19.63-12.1-28.9-5.5-10.03-12.86-18.99-21.51-26.46-6.77-5.28-13.42-11.01-21.27-14.61m-10.85 2.33c-0.54 4.23 1.26 8.25 0.99 12.48 1.36 11.79 2.91 23.61 5.6799 35.19 5.5801 21.53 14.99 42.07 27.89 60.19 3.77 5.08 7.3 10.42 11.99 14.74-2.1499-21.5-4.7699-43.27-11.96-63.81-5.1899-14.45-13.08-27.73-21.46-40.52-4.3599-6.0999-8.2799-12.55-13.13-18.27m202.44 8.5c4.7001 4.3199 10.48 7.23 15.88 10.58 9.4601 4.98 20.07 7.25 30.6 8.52 6.17-0.37 12.33 0.7 18.49-0.25-10.87-7.17-22.03-14.69-35.04-17.22-9.8001-2.45-19.94-1.72-29.93-1.63m-401.06 6.34c-10.18 2.13-19.47 7.16-28.25 12.55 16.07-6.6599 33.26-11.88 50.84-10.94 7.33-0.67 14.38 1.74 21.33 3.76 11.51 3.51 22.19 9.11 33.02 14.25-1.6-1.91-3.8099-3.1-5.76-4.5701-6.89-4.34-13.89-8.62-21.53-11.53-15.6-6.51-33.31-7.9-49.65-3.52m189.76-2.94c-3.52 9.4401-4.29 19.71-6.0601 29.59-0.29 10.47-0.5 21.04 1.5 31.37 2.16 11.11 5.04 22.23 10.16 32.4 1.99-6.1801 2.51-12.72 3.98-19.03 0.27-4.64 1.5699-9.12 1.38-13.78 1.9301-9.28 0.14-18.72-1.15-27.93-2.2499-11.14-5.3199-22.16-9.8099-32.62m204.41 3.28c9 11.45 18.73 22.52 30.63 31.09 14.47 10.16 30.89 17.99 48.31 21.37-1.01-3-3.85-4.72-5.65-7.1599-2.55-3.39-5.5599-6.37-8.58-9.3-3.92-3.77-7.4501-7.97-11.9-11.11-7.1-6.39-15.68-10.74-24.22-14.82-9.36-3.7802-18.69-7.9402-28.59-10.07m-2.72 9.93c1.64 4.1899 3.22 8.4099 4.86 12.61 6.77 17.49 20.32 31.85 36.56 40.98-4.52-13.38-9.91-27.22-20.39-37.13-6.2901-6.32-13.16-12.22-21.03-16.46m-1328.8 84.45c-6.42 7.0701-12.04 14.89-16.77 23.2-6.38 11.55-9.35 24.55-11.61 37.44-0.6 2.14-0.86 4.36-0.73 6.61 12.55-11.14 22.15-25.47 28.32-41.04 4.19-10.81 5.8-22.34 7.82-33.69-2.69 2.1299-5.08 4.6399-7.03 7.4799m1.26 32.28c-3.69 11.53-5.58 23.56-6.38 35.58 0.35 9.98-0.79 20.06 0.94 29.94 0.14 4.4399-0.35 9.0299 1.4 13.25 14.59-27.25 23.02-58.11 22.06-89.1-0.85-5.51 0.22-11.14-0.93-16.61-0.82-4.01 0.03-8.1899-1.32-12.11-6.78 12.3-11.49 25.68-15.77 39.05m23.32-16.69c-1.3 7.7201-0.49 15.58-0.7 23.37 1.59 15.46 6.84 30.43 13.71 44.33 4.42-17.56 4.5-36.12 0.65-53.77-2.48-10.29-6.85-19.95-10.93-29.66-2.06 4.96-2.15 10.45-2.73 15.73m1340.4 15.26c4.4601 12.37 13.9 23.2 26.06 28.38-4.6601-12.24-13.69-23.41-26.06-28.38m-4.99 1.65c2.4301 18.75 9.5901 37.92 24.03 50.71-1.96-12.12-4.55-24.59-11.48-34.96-3.77-5.56-7.54-11.24-12.55-15.75m-1264.1 98.04c0.88 9.24 1.71 18.5 3.79 27.58 2.49 11.72 8.17 22.45 14.45 32.54 1.38 2.1699 2.59 4.53 4.53 6.29 0.47-3.0601-0.49-6.01-0.68-9.01 0.13-5.62-1.44-11.05-2.48-16.51-3.94-14.64-10-29.09-19.61-40.89m7.01 0.93c4.07 12.46 9.97 24.76 19.88 33.61 3.06 2.05 5.48 4.8501 8.31 7.2001-2.71-13.03-10.2-24.73-19.69-33.87-2.98-2.1601-5.08-5.4201-8.5-6.9401m-12.64 3.26c-3.73 15.31-3.76 32.16 3.3199 46.56 5.13-14.9 4.31-31.65-2.0699-46.05-0.32-0.1301-0.94-0.3901-1.25-0.5101z"/>
	<path d="m1190.9 358.04c4.3999 0.31 8.6499-1.22 13.06-0.99 7.01-0.03 14.03 0.01 21.05 0.01 4.0399-0.13 7.9299 1.32 11.99 0.96 37.2 3.39 73.52 13.82 108.14 27.69 7.12 2.71 14.28 5.44 21.15 8.76-41.27-10.54-82.71-21.62-125.18-25.64-6.47-1.47-13.15-0.28-19.63-1.54-14.63-1.29-29.22 0.9-43.56 3.62-22.44 4.3-44.59 10.46-65.67 19.38-21.03 8.85-41 20.17-59.7 33.22-2.22 1.54-4.4199 3.11-6.7799 4.41 5.3999-6.7 12.82-11.24 19.06-17.05 4.58-3.34 8.6801-7.29 13.16-10.75 6.97-6.1 15.44-10.05 23.38-14.68 27.7-14.8 58.29-24.28 89.53-27.4z"/>
	<path d="m651.47 373.55c0.86-1.37 1.39-3.16 3-3.84 0.66 12.52 8.4 23.13 10.41 35.33 0.38 7.1 0.81 15.61-5.11 20.74-5.03 6.19-13.19 8.6-18.01 14.98-2.5 3.73-3.94 8.16-4.11 12.66-2.6801-4.23-3.53-9.32-4.9901-14.04-1.69-7.68-3.14-15.48-2.64-23.38-0.49-11.42 2.85-24.41 12.72-31.22 3.6201-3.12 6.5101-7.02 8.7301-11.23m-13.97 40.95c-2.88 8.64-2.69 18.21-0.08 26.86 1.89-8.07 12.39-8.43 15.4-15.66 2.67-8.51-2.5-16.64-2.95-25.03-4.17 4.56-9.5 8.23-12.37 13.83z"/>
	<path d="m923.83 400.9c6.24 1.58 12.62 2.36 19.06 2.25 5.31 1.05 10.79 0.4 16.02 1.89 7.17 1.28 13.16 5.87 17.83 11.25 7.02 9.02 10.81 20.3 11.27 31.66-0.1 10.85 0.05 21.69-0.05 32.53-2.47-3.85-4.1-8.14-6.28-12.14-3.3-3.81-6.85-7.58-11.64-9.47-8.45-4.28-18.35-4.62-26.63-9.26-6.39-4.18-12.38-9.9-14.61-17.42-3.3-10.16-2.2-21.02-4.97-31.29m17.1 12.93c4.96 3.9 10.89 6.42 15.94 10.25 10.8 6.95 19 17.43 23.8 29.31 1.6 3.32 2.15 7.12 4.18 10.24-1.6-11.95-6.67-23.64-15.49-32.02-7.77-8.24-18.04-13.63-28.43-17.78z"/>
	<path d="m686.71 425.84c2.77-1.15 4.5-3.8 7.08-5.26-2.48 7.08-5.44 14.15-10.08 20.11-4.73 5.85-12.47 7.81-19.64 8.41-4.31 0.77-8.84 1.07-12.77 3.19-3.37 1.43-5.45 4.65-8.45 6.63 2.67-8.99 7.7401-17.21 13.45-24.61 3-3.01 5.68-6.83 10.03-7.94 6.73-1.47 13.68 1.24 20.38-0.53z"/>
	<path d="m465.8 444.14c10.1-3.49 20.45-7.12 31.26-7.33 10.83-1.11 22.71 2.86 28.75 12.35 4.67 6.01 6.44 13.54 8.04 20.81-7.63 0.73-15.14 2.64-22.81 2.98-11.14 0.34-22.86-4.17-29.37-13.54-3.21-3.2-5.51-7.19-8.93-10.19-2.1-1.97-4.57-3.47-6.94-5.08z"/>
	<path d="m528.59 472.76c9.41-3.32 19.53-4.4 29.38-5.68 7.36 0.1 14.82-0.66 22.08 0.82 10.38 1.04 20.29 4.67 29.98 8.31 2.77-0.13 5.2-1.83 7.95-2.25 10.91-3 23.63 0.13 30.98 9.01 6.9 8.54 8.86 20.65 5.18 30.98 9.6 11.02 17.87 23.18 24.83 36.04 2.2 4.75 5.1801 9.26 6.16 14.48-0.31-0.33-0.93-1-1.24-1.33-9-14.71-17.68-29.86-29.41-42.61-0.37-0.51-1.12-1.54-1.49-2.05-2.37 2.55-3.68 5.89-6.22 8.3-7.04 8.96-18.41 14.26-29.77 14.21-8.36-0.75-16.42-4.73-21.75-11.27-4.68-6.17-6.99-14.04-6.25-21.77 0.87-7.43 3.78-14.66 8.33-20.61 0.96-1.3 2.57-2.26 2.71-4.01-14.03-2.42-29.6-2.38-41.87 5.83-6.27 3.58-9.94 10.75-10.25 17.83-0.32 6.51 3.51 12.97 9.41 15.74 4.09 0.96 8.73 0.39 12.13-2.28 4.9-2.91 6.66-10.94 1.74-14.68-3.5-2.57-6.78 1.6-9.45 3.48 0.82-3.41 3.25-7.56 7.24-7.34 3.13-0.4 7.21 0.33 8.37 3.73 3.31 5.37 1.57 12.63-3.08 16.63-5.33 5.99-15.11 7.97-21.93 3.48-2.81-2.56-5.88-5.14-7.31-8.76-3.72-9.12-1.57-20.5 5.68-27.3 8.7401-9.79 22.69-12.75 35.29-12.78 7.28-0.45 14.25 1.98 21.45 2.56-0.63-0.98-1.27-2.08-2.46-2.42-8.59-3.63-17.74-5.71-26.95-7-7.02-0.16-14.06-1.6-21.05-0.15-4.36-0.28-8.53 1.07-12.86 1.09-3.61 5.59-4.22 12.5-4.27 18.99-0.75 3.59-0.86 7.24-1.03 10.9-1.98 10.94-8.06 21.25-17.03 27.88-3.44 3.3-7.48 5.88-11.24 8.78-2.05 1.23-3.63 3.44-6.19 3.57-5.88-13.21-7.12-29.82 1.54-42.13 8.31-12.27 21.69-19.53 34.38-26.46-3.8898 0.5-7.8498 1.36-11.71 0.24m70.79 29.23c-0.79 0.8-1.58 1.6-2.36 2.4-0.04 1.09-0.05 2.18-0.04 3.28 1.22 0.92 2.15 2.72 3.95 2.41 2.28-0.7 4.82-2.23 4.12-5.01 0.58-3.43-3.36-3.34-5.67-3.08z"/>
	<path d="m467.78 503.77c17.32-13.76 37.37-23.84 58.35-30.71 1.46-0.55 2.29 1.07 3.25 1.83-2.56 1.17-5.35 1.61-8.02 2.42-9.67 3.03-18.75 7.58-27.7 12.29-3.05 1.63-6.54 2.8-8.61 5.77 0.6 10.32 7.09 19.29 7.45 29.65-0.3 12.29-7.76 22.67-14.43 32.4-7.6-6.56-14.18-15.95-13.07-26.47 0.99-10.17 6.71-19.17 13.19-26.8 1.79-2.66 4.55-4.84 5.07-8.17-8.85 4.87-16.36 11.74-24.02 18.23-15.39 14.96-27.84 33.79-31.83 55.17-0.7 6.32-2.3 12.7-0.94 19.07 0.85 14.64 5.92 28.92 13.78 41.27 6.94 11.08 17.73 20.12 30.5 23.56 10.92 2.9 23.19-0.29 31.06-8.4901 5.17-5.78 9.58-12.33 12.29-19.64 2.08-5.5 4.35-11.17 3.97-17.16 0.36-8.03-3.57-16.36-10.72-20.35-6.1-3.34-13.62-4.91-20.36-2.68-4.15 1.25-9.06 2.92-10.75 7.35-1.33 4.03 1 8.03 1.07 12.09-2.83-1.71-5.29-4.91-4.54-8.37 0.65-5.86 5.21-10.67 10.62-12.64 10.96-4.2 24.86-1.43 32.3 8 3.54 4.41 4.85 10.09 5.21 15.62-0.44 11.9-5.51 23.13-11.95 32.97-5.74 7.79-13.77 14.61-23.52 16.46-10.27 2.11-20.48-1.53-29.35-6.48 4.43 6.17 4.01 14.05 5.43 21.18-7.66-1.74-16.82-5.02-19.4-13.27-0.54-5.06 0.01-10.18 1.83-14.93 2.03 1.12 4.11 2.15 6.26 3.03-16.35-16.2-26.5-38.84-26.43-61.98-0.46-23.03 9.99-45.15 24.99-62.2 6.17-6.18 12.03-12.75 19.02-18.02z"/>
	<path d="m923.51 505c4.03-3.88 9.06-7.04 14.74-7.68 8.11-0.36 13.95 6.08 19.01 11.55-3.65 1.28-7.45 2.05-11.12 3.25-3.72 1.42-7.74 0.7-11.6 0.89 6.88 4.42 13.26 10.11 16.66 17.71 2.3 5.8 3.79 12.33 1.98 18.48-3 13.54-12.77 24.23-23.16 32.8-6.59 4.97-14.69 8.38-23.05 7.97-14-1.23-25.01-15.09-23.86-28.93 0.64-3.42 2.2-6.77 4.68-9.24 3.18-2.06 7.31-4.94 11.1-2.61 0.02 0.38 0.07 1.14 0.1 1.52-3.17 1.54-7.22 0.75-9.82 3.46-3.83 3.04-3.41 8.43-3.15 12.81 1.38 6.48 4.91 12.84 10.7 16.33 7.34 5.38 17.47 4.71 25.29 0.74 7.64-3.94 14.22-9.83 19.31-16.74 5.94-7.02 10.31-15.96 9.76-25.34 0.32-8.67-5.09-16.23-11.27-21.78-9.33-8.08-21.58-12.22-33.75-13.21-13.08-0.27-26.35-0.05-38.87 4.18-10.49 3.57-20.32 9.07-28.91 16.06-3.8 3.57-7.39 7.34-11.06 11.04-14.11 16.93-22.73 37.94-26.81 59.47 0.88-0.22 2.65-0.66 3.53-0.88 4.81-10.84 11.47-21.97 22.54-27.31 9.34-4.8 20.81-3.57 29.87 1.25-3.59 4.34-6.16 9.43-10.01 13.56-6.72 9.72-18.71 15.1-30.41 14.67-4.66 0.54-9.39 1.2-13.71 3.14-0.64-1.18-1.2599-2.35-1.86-3.53-1.29 3.62-1.41 7.43-1.57 11.22-1.34 5.96-0.62 12.1-0.84 18.16 0.2 5.72-0.58 11.56 0.8 17.19 0.27 1.57 0.22 3.17 0.29 4.77-0.75 0.01-2.25 0.03-3 0.04-0.22-6.05 0.55-12.2-0.87-18.15-0.8-6.34 1.26-12.56 0.85-18.91 2.48-28.34 12.13-57.03 31.47-78.41 8.1-9.87 19.06-17.09 30.54-22.49 20.13-8.71 43.26-10.76 64.33-4.4 2.02 0.6 4.02 1.36 6.16 1.55-1.73-1.34-3.52-2.6-5.01-4.2z"/>
	<path d="m889.94 508c7.19 0.16 16.07-1.42 21.33 4.73 4.14 3.99 3.98 10.02 3.67 15.33-6.07-0.06-12.94-1.04-17.28-5.72-4.01-3.89-4.81-9.74-7.72-14.34z"/>
	<path d="m1017.8 542.77c10.15-8.49 23.93-13.47 37.13-10.94 17.49 0.9 34.44 7.19 52.08 6.17-9.5701 17.77-8.83 40-22.01 56.02-5.52 6.51-13.29 10.72-21.16 13.79-8.6599 2.79-17.79 3.53-26.84 3.18-10.74 0.74-22.05 0.86-31.69 6.29-4.97 2.03-8.38 6.2599-12.1 9.92-4.48 4.49-6.7 10.61-10.49 15.6-0.46 0.08-1.3799 0.24-1.83 0.32 0.46-4.5 2.28-8.7 3.1-13.14 4.99-22.41 5.14-46.59 16.93-66.97 4.02-7.97 10.52-14.15 16.88-20.24m24.79 17.86c-16.96 6.4-31.59 18.43-41.23 33.75-4.93 7.44-7.74 16-10.22 24.5 3.05-4.97 4.98-10.56 8.44-15.3 9.14-15.33 21.94-29.16 38.36-36.72 9.9701-4.92 20.49-8.69 31.17-11.75 2.75-0.9 5.8201-1.15 8.17-3.02-11.85 1.39-23.59 4.09-34.69 8.54z"/>
	<path d="m432.47 612.08c3.49 0.57 7.08 1.19 10.57 0.27 3.17 0.7 6.69 0.31 9.56 2.05 3.98 3.27 7.72 7.16 9.46 12.12-5.58 2.65-12.56 5.32-18.36 1.81-5.94-3.34-9.31-9.95-11.23-16.25z"/>
	<path d="m1345.4 628.77c15.11 15.4 25 35.68 28.99 56.81 0.7 2.54 0.63 5.19 0.88 7.8 1.85-1.58 2.1799-4.04 2.95-6.21 3.36-10.01 6.5601-20.39 13.07-28.87 2.2899-2.08 4.15-5.77 7.73-5.29 3.6-0.7 6.12 2.39 8.16 4.86 2.5699 4.29 2.45 9.9-0.24 14.11-1.8 3.8-7.28 5.59-10.52 2.51-3.25-2.91-5.1901-7.9-3.92-12.22 0.25-1.27 0.4401-2.54 0.5701-3.81-4.0601 3.84-5.8501 9.38-8.41 14.22-5 12.49-9.23 25.72-8.7101 39.32-1.0499 4.09-0.7999 8.33-1.5199 12.48 3.37-5.81 5.08-12.52 8.83-18.16 3.86-7.17 9.47-13.22 15.73-18.36 6.61-5.05 15.04-6.58 23.18-6.64-1.29 3.32-4.7001 5.22-6.9401 7.89-12.68 11.58-18.9 28.87-19.34 45.76-0.84 5.6201-1.0699 11.44 0 17.06-0.1801 9.6899 1.9399 19.19 3.4301 28.72 1.6799 7.65 3.09 15.43 2.6599 23.31-1.03 9-2.5499 18.13-6.51 26.38-2.4399 7.07-7.72 12.54-11.71 18.66 0.1 4.38 1.58 8.56 2.26 12.87 1.92 10.36 3.4399 20.8 5.04 31.22-1.14-0.2-2.05-0.72-2.7301-1.57-1.1799-13.67-4.12-27.13-6.5-40.63-8.5399 1.17-16.64-3.45-22.08-9.73-11.37-10.15-17.7-25.22-18.76-40.25-2.51-18.75-5.0499-38.09-13.84-55.15-3.4401-7.72-8.98-14.22-15.53-19.48-6.5599-4.32-14-6.98-21.51-9.09 5.87-4.57 13.41-7.09 20.86-6.56 9.91 0.38 18.94 5.64 26.26 12.02 3.38 3.19 6.4401 6.72 9.9601 9.78-6.75-11.85-8.5601-26.33-18.12-36.55-4.6201-6.54-10.24-12.35-16.96-16.74 2.39 5.04 4.5 11.17 1.5601 16.44-1.0801 3.09-4.4301 5.1-7.64 4.62-4.28-0.11-6.72-4.59-7.3301-8.36-1.5099-4.05 0.7201-8.13 2.7101-11.56 2.0699-3.61 7.1899-4.46 10.61-2.34 8.5599 4.34 14.83 12.07 19.95 19.98 0.65 2.37 2.5901 3.73 4.54 5.04-2.08-12.39-2.58-25.14-1.02-37.62 1.6298-12.59 5.2198-24.88 9.9098-36.67m16.95 104.09c-2.34 7.53-0.8099 15.45-1.87 23.14 1.0901 6.8-0.2 13.77 1.0601 20.56 0.65 2.96 0.25 6.05 1.02 9.02 2.1499 20.96 8.4199 41.34 16.26 60.82 1.1-5.04 1.1399-10.26 1.21-15.39-0.16-8.06 0.47-16.18-0.76-24.17-0.52-4.06 0.24-8.2401-0.9-12.21-1.8401-21.31-9.0402-41.68-16.02-61.77m20.74 60.1c-0.09 7.2-1.87 14.35-0.86 21.57 0.4401 7.6299 1.2001 15.2 2.4301 22.74 0.38 1.44 0.11 3.52 1.97 4 1.66-5.73 3.22-11.48 4.38-17.33 1.46-8.59 3.55-17.16 3.02-25.94 0.48-12.28-1.96-24.32-3.23-36.47-4.3901 9.91-5.98 20.81-7.7101 31.43m-41.14-20.37c2 20.53 8.15 40.81 18.97 58.47 3.13 4.63 5.86 9.76 10.24 13.34-3.7001-17.21-6-35.23-14.9-50.75-4.23-7.35-8.6899-14.71-14.31-21.06z"/>
	<path d="m756.82 678.26c7.36-1.51 13.92-5.49 21.21-7.2 9.65-1.56 18.16 4.19 25.37 9.83-6.28 4.97-12.66 11.74-21.39 11.25-10.37 0.8-18.65-6.81-25.19-13.88z"/>
	<path d="m734.26 712.26c7.64-8.01 16.23-15.32 25.94-20.66-2.33 4.25-4.66 8.62-5.24 13.51 0.45 7.88 6.0099 14.78 5 22.85-1.26 7.4-6.56 13.22-11.81 18.23-10.1 7.79-22.36 12.62-31.23 22.01 1.7-8.27 1.5-16.88 0.17-25.17 1.1-12.11 8.64-22.57 17.17-30.77m-0.18 10.95c-1.93 5.72 1.68 11.56 0.37 17.33 2.8-1.85 4.77-4.7 7.66-6.44 5.52-3.89 11.98-8.61 12.56-15.94-1.82-5.66-4.34-11.52-2.57-17.55-6.98 6.62-14.77 13.23-18.02 22.6z"/>
	<path d="m913.73 696.85c9.07 2.9 17.76 7.23 25.3 13.1 5.93 4.67 11.38 10.65 12.66 18.38 0.73 7.42 0.36 14.97 1.59 22.36 1.04 4.04 3.11 7.77 6.29 10.51 1.2-2.97 2.97-5.71 3.86-8.8 1.71-5.06 1.87-10.42 2.74-15.64 5.75 5.72 12.07 11.48 14.69 19.4 0.45 5.31 0.51 11.29-3.11 15.61-6.05 7.27-11.42 15.25-14.85 24.1-0.41 0.85-0.87 1.67-1.4 2.46-3.43-10.43-9.77-19.66-17.74-27.12-5.29-6.14-11.12-12.06-14.41-19.6-2.34-5.9-3.72-12.25-3.34-18.62 0.35-6.31-0.8-12.54-1.19-18.81-0.93-3.53-1.37-7.38-3.66-10.36-2.1-2.7-4.82-4.81-7.43-6.97z"/>
	<path d="m1167 697.15c11.02-0.23 22.04-0.1801 33.07-0.1 10.18 1.17 20.42 4.01 28.79 10.16 14.77 10.62 22.77 27.59 30.49 43.53 2.7999 6.59 5.6499 13.16 8.0599 19.92 1.1801 2.08 4.2001 1.53 5.88 3.07 2.5601 1.89 4.05 5.01 3.85 8.21 18.42 7.78 35.08 19.63 48.67 34.26 13.72 13.55 23.73 30.26 32.85 47.13 15.79 30.72 26.05 64.07 32.16 98.01-1.11-0.47-2.66-1.05-2.62-2.4901-2.85-14.35-6.13-28.72-11.74-42.28-0.7101-5.59-3.3-10.65-4.9301-15.99-10.69-28.67-25.47-56.2-46.03-79.02-4.1499-5.85-10.15-9.88-15.3-14.73-10.4-7.98-21.49-15.11-33.26-20.88-2.52 0.14-4.54 3.04-7.26 2.26-2.98-0.4901-3.47-4.03-4.75-6.23-9.3199-0.42-18.62 1.47-27.92 0.09-5.4099 0.16-10.53-2.28-15.9-2.09-6.38 1.43-12.45 4.03-18.4 6.7-2.91 0.9-3.38 4.25-4.91 6.48-1.66-0.25-3.25-0.7599-4.8-1.34-5.2 3.04-9.9199 6.8-14.64 10.51-2.67 2.2-4.2401 5.33-5.8401 8.33-1.38 0.8-3.01-0.62-4.46-0.72-0.03 1.96-0.75 4.63 2.2 4.41-2.3199 5.6-4.25 11.86-2.62 17.92 1.12 7.09 6.04 14.42 13.45 15.83 5.71 1 8.76-9.97 2.11-10.44-0.73 1.29-1.38 2.63-2.15 3.9 0.15-1.74-0.6-4.33 1.52-5.12 2.01-1.29 3.9 0.66 5.4199 1.81 0.65 3.51 0.28 7.57-2.6599 10-2.3401 3.23-6.6 1.46-9.3-0.27-9.99-6.52-12.38-20.55-8.04-31.1-0.7 0.02-2.09 0.04-2.7899 0.06-5.53 9.33-8.72 20.22-8.23 31.1 0 6.48 2.23 12.86 5.85 18.21 3.3099 5.27 9.03 9.13 15.23 9.89 7.7 1.02 12.7-8.97 8.79-15.13-1.75-0.22-3.75-1-5.2001 0.43-1.1599 1.53-2 3.29-3.34 4.68 0.22-3.21 0.79-7.74 4.78-8.12 4.1799-0.68 6.48 3.52 6.9199 7.06-0.1599 5.02-2.2699 10.65-7.0599 12.86-5.8201 2.09-11.92-0.82-16.56-4.24-6.01-5.35-9.6799-13.03-10.98-20.9-2.09-16.77 4-33.81 14.65-46.72-6.72 1.93-13.92 0.78-20.3-1.76-9.95-4.11-17.76-11.97-24.39-20.21 10.51-7.92 21.42-17.85 35.44-17.62 12.56 1.66 22.19 10.7 31.15 18.87 2.23-3.23 5.97-2.27 9.0599-1.06 5.39-2.3101 11.07-3.9901 16.38-6.51-7.7799-5.75-16.44-10.81-22.23-18.79-11.78-13.61-19.35-30.34-24.6-47.42-1.23-4.7999-3.38-9.4099-3.56-14.41m69.78 33.54c4.98 14.59 13.03 29.14 26.53 37.41-1.6901-6.77-5.0601-12.99-8.4-19.06-2.52-4.61-6.36-8.2-10.08-11.82-2.54-2.35-4.67-5.34-8.05-6.53m-22.77 5.06c1.7101 2.69 3.42 5.39 5.36 7.94 10.71 13.83 24.95 26.07 42.16 30.63-0.21-0.47-0.62-1.4-0.83-1.87-4.64-6.02-9.22-12.11-14.86-17.24-8.4-9.46-20.02-15.44-31.83-19.46m5.83 29.58c0.2 1.79 1.83 2.79 3.1799 3.75 7.16 5.42 15.62 9.62 24.7 10.23 3.2 0.34 6.6799 1.05 9.7-0.47-6.88-5.67-14.56-10.88-23.42-12.76-4.74-0.12-9.4-1.37-14.16-0.75m-52.16 9.54c4.88 6.56 12.98 10.62 21.15 10.6-4.86-6.76-13.19-9.68-21.15-10.6m-10.24 11.77c9.66 5 21.97 6.73 32.06 2.03-9.8898-4.54-21.84-6.72-32.06-2.03m8.38 13.34c7.5699 0.93 15.54-1.05 21.23-6.25-0.08-0.31-0.26-0.92-0.34-1.23-7.69-0.75-15.21 2.44-20.89 7.48z"/>
	<path d="m769.51 699.9c1.8 1.62 1.37 4.22 2.39 6.2599 3.24 9.2 14.69 11.94 17.74 21.25 3.47 9.39-1.35 19.05-4.21 27.95-1.69-3.23-0.51-7.67-3.64-10.12-4.5-3.37-10.28-4.71-14.42-8.61-4.12-5.67-2.48-13.15-2.34-19.68 0.58-5.8699 2.23-11.6 4.48-17.05z"/>
	<path d="m345.35 741.32c11.6-4.43 24.95-3.07 36 2.35 7.54 3.67 14.73 9.71 16.85 18.12-0.25 3.72 0.33 7.64-1.32 11.13-3.95 9.24-14.74 13.73-24.35 11.95 4.31-2.44 9.61-3.44 12.76-7.61 5.11-5.66 1.59-14.64-4.23-18.36-6.19-4.84-14.82-4.37-21.78-1.6-7.7 2.98-14.21 9.05-17.13 16.83-1.91 5.77-2.58 11.87-2.16 17.94 1.33 14.23 6.79 28.07 15.28 39.55 13.39 15.53 30.67 27.25 49.05 36.08 19.92 9.18 41.49 14.86 63.31 16.69 4.98 1.24 10.15 0.21 15.2 0.84 4.9 0.99 9.93 0.3 14.89 0.35 5.77-1.22 11.75 0.21 17.48-1.27 18.63-1.3 37.03-5.16 55.29-9.15-2.58 2.61-6.34 3.32-9.64 4.6201-17.25 6.2599-35.22 10.73-53.46 12.64-3.8 1.04-7.83 0.09-11.6 1.28-6.23 0.64-12.54 0.11-18.79 0.32-7.01-0.36-14.13 0.67-21.04-0.82-15.49-0.76-31.07-2.54-45.96-7.14-24.37-7.96-47.35-20.49-66.73-37.31-5.99-6.03-12.45-11.66-17.39-18.62-5.05-7.25-9.11-15.3-11.01-23.97-3.76-16.55-0.56-34.84 9.64-48.6 5.41-7.0401 12.29-13.35 20.84-16.24z"/>
	<path d="m1443 778.96c5.65-3.95 12.73-6.35 19.65-5.58 14.88 3.22 25.05 18.82 24.37 33.62 0.58 8.28-2.71 16.59-8.27 22.67-2.9399 2.49-7.12 4.66-10.78 2.3-6.02-4.17-5.5599-12.39-4.8099-18.85h0.63c0.2 4.24 0.61 9.29 4.46 11.93 4.84 1.5 8.22-3.51 9.28-7.58 1.51-6.37 0.33-13.29-3.1-18.87-1.8201-3.56-5.6901-5.28-9.0801-6.99-7.84-2.94-17.22-2.32-24.13 2.64-15.35 9.93-25.39 26.06-32.43 42.58-6.65 15.8-10.43 32.64-12.78 49.57 2.52-1.53 2.3-4.72 3.22-7.19 3.4301-11.6 7.8301-23.64 17.02-31.97 9.21-9.83 25.11-14.84 37.45-8.02 7.29 3.55 11.54 11.23 13.18 18.91 0.11 6.54 1.11 13.56-2.2 19.55-2.88 5.42-8.77 10.68-15.35 9.1-5.59-2.32-8-8.5-8.36-14.14 1.89 4.01 4 9.27 9.0701 9.91 4.89 0.14 7.6699-4.66 8.74-8.84 0.87-5.72 0.13-11.8-2.53-16.95-1.9399-2.14-4.04-4.9-7.21-4.89-7.76-0.95-14.29 4.75-18.71 10.47-4.2799 8.22-3.62 18.01-7.58 26.38-3.5 8.4301-12.5 12.17-18.02 18.98-6.7899 8.58-7.8199 19.87-9.7 30.26-0.15 9.1-0.14 18.21-0.01 27.32 0.4299-0.15 1.29-0.44 1.73-0.59 0.42-2.9 1.2-5.72 1.47-8.63 1.2001-0.04 2.42-0.07 3.66-0.08 3.7-7.85 9.85-15.16 18.45-17.66 3.01-1.2 6.5701-1.31 9.1801-3.36-7.05 0.93-14.59 2.5-19.77 7.75-3.27 2.94-5.78 6.57-8.0699 10.29-0.6 0.03-1.79 0.08-2.39 0.11 2.53-8.76 5.0499-18.32 12.29-24.46 3-2.61 7-5.53 11.19-4.26 6.76 1.08 12.38 5.37 19.06 6.79-4.3101 8.27-4.7201 18.97-12.61 25.03-4.8899 4.11-11.42 2.73-17.13 1.7599-6.6399-1.2599-11.9 3.72-15.81 8.38-1.97 5.97-2.42 12.4-2.29 18.68-1.4399 18.37-3.61 36.65-7.34 54.73-0.66 0.09-1.98 0.25-2.64 0.33 3.39-13.28 5.01-26.95 6.4401-40.53 1.1599-4.55 0.08-9.32 1.3199-13.87 1.64-7.44-2.54-14.47-1.75-21.89 0.99 0.8 1.97 1.64 2.99 2.46 0.53-6.46-1.12-12.8-0.63-19.25-0.61-7.69-0.15-15.4-0.45-23.09-0.66-4.62-0.9501-9.25-1.01-13.89-1.15-4.6201-0.78-9.42-2.05-14.01 0.75 0.03 2.23 0.09 2.97 0.12 0.14 2.71 0.2101 5.43 0.5901 8.14 3.84-4.42 4.34-10.75 4.6599-16.34-0.4399 0.01-1.34 0.04-1.7899 0.05 0.1899 3-0.1 6.01-0.41 9.01-0.45-0.01-1.35-0.03-1.8-0.04 0.3301-26.2 6.28-52.31 16.33-76.54 7.1694-16.5 18.52-31.45 33.59-41.46z"/>
	<path d="m1221.8 810.44c11.45-1.98 23.13-1.03 34.59 0.04 26.51 2.96 52.93 13.1 72.42 31.72 3.61 2.62 6.86 5.78 9.52 9.38 12.14 13.13 22.36 28.28 29.23 44.84 1.78 4.67 4.2101 9.11 5.53 13.96-6.4401-8.59-10.8-18.62-17.23-27.26-4.8101-6.49-9.35-13.24-15.11-18.94-4.28-5.63-9.42-10.61-14.98-14.97-5.55-5.53-11.61-10.57-18.24-14.76-16.85-9.97-36.02-14.93-54.99-19.08-10.14-2.33-20.46-3.71-30.74-4.93z"/>
	<path d="m844.31 829.28c3.05-0.88 6.03-2.09 9.21-2.47-7.05 5.36-15.28 8.97-22.23 14.48-12 8.43-18.84 23.07-19.49 37.53-2.05 9.58 0.38 19.53-1.6 29.13-0.71 20.66-12.84 41.97-32.74 49.54-16.32 7.02-34.35 9.01-50.38 16.83 0.02-19.71-5.33-38.87-8.05-58.27-0.3101-8.09-0.73-16.38 1.8799-24.17 2.39-8.82 7.96-16.3 13.84-23.11 10.74-11.85 25.02-20.24 40.36-24.65 22.59-7.08 46.66-7.52 69.2-14.84m-40.21 16.78c-9.4 4-18.07 9.64-25.61 16.52-4.59 3.04-7.44 7.83-11.22 11.7-13.27 17.14-20.07 38.31-23.52 59.48-0.6 2.28-0.99 4.61-0.7 6.99 0.87-1.24 1.13-2.75 1.62-4.14 5.4-18.45 11.45-36.96 21.59-53.42 12.6-17.5 30.22-31.09 49.72-40.15 1.16-0.68 2.59-1.03 3.46-2.13-5.19 1.51-10.22 3.46-15.34 5.15z"/>
	<path d="m1224.9 828.1c3.99 7.52 5.52 16.28 10.9 23.08 8.7899 13.4 25.87 18.54 41.21 17.83 5.04 0.54 9.9399-0.94 14.94-0.98 13.87 2.05 24.55 13.07 30.23 25.34-10.34-5.51-19.16-14.39-31.08-16.53-4.1-1.36-8.4299-0.52-12.6-1.28-2.63-0.49-5.22 0.32-7.8 0.61 8.2401 8.3 18.95 14.33 30.41 16.84 6.7101 1.74 13.68 0.78 20.54 1.03 3.7999 4.97 10.12 6.69 14.91 10.45 13.26 9.71 24.5 22.49 31.46 37.48 9.91 19.15 14.36 40.67 15.96 62-0.03 10.03 0.12 20.07-0.13 30.1-0.08 1.9701-0.0699 5.1801-2.7799 5.15-0.0801-4.1 0.21-8.2 0.8999-12.23 0.14-5.34 0.0901-10.68 0-16-0.59-4.34-0.96-8.7-0.9399-13.07-2.28-21.58-7.5-43.38-18.89-62.09-4.61-7.21-9.78-14.09-15.85-20.12-6.4301-5.75-13.34-11.06-21.05-15-1.58 5.91-2.53 12.19-6.0599 17.36-5.52 9.36-14.35 17.51-25.22 19.81-7.33 0.27-14.67-0.05-22 0.12-8.88 0.95-17.72 3.64-25 8.95-11.21 8.1-15.49 21.88-19.57 34.41-2.0601-6.95-1.48-14.25-1.35-21.4 1.5499-12 6.5-23.5 13.86-33.09 1.6799-2.39 4.46-3.94 5.5599-6.72-7.09 4.31-15.78 5.49-22.09 11.13-6.02 5.47-12.26 11.16-15.77 18.64 3.66-1.96 8.5801-0.83 10.44 3.03 1.9099 4.18 2.39 10.32-1.77 13.32-1.87 2.3-5.8 2.52-7.54-0.01-5.5599-4.28-4.5499-12.58-1.46-18.05 4.67-7.61 10.51-14.8 18.08-19.67-2.86-1.56-6.15-1.46-9.2799-1.64-13.62-2.29-25.58-10.36-34.86-20.31-0.98-2.94 2.63-4.36 4.0601-6.38 8.2-9.3 19.38-16.18 31.72-18.13 2.8101-0.01 5.59-0.49 8.3-1.29-2.17-2.57-5.2001-4.14-7.5-6.55-4.26-4-8.01-8.53-10.99-13.55 2.64 1.85 4.59 4.47 6.47 7.06 5.6899 6.12 11.82 12.25 19.82 15.22 4.26 1.41 8.3101 3.33 12.36 5.27-5.11-5.53-10.44-11.05-13.78-17.9-6.9801-12.75-9.7602-28-6.7702-42.24m22.72 75.17c8.6801 4.8 18.67 6.28 28.35 7.7 15.6 0.77 31.52-1.71 45.63-8.65-4.4299-2.34-9.38-3.42-14.17-4.73-10.56-2.56-21.55-4.42-32.37-2.48-9.3301 1.97-18.73 4.25-27.44 8.16m38.97 15.27c-6.11 3.83-12.07 8.1-16.95 13.45 18.81 1.93 37.16-7.5 49.72-20.98-11.21 0.23-23.03 1.41-32.77 7.53z"/>
	<path d="m1210.4 839.36c1.5699-0.68 3.1799 0.87 4.35 1.83 5.3099 4.25 4.3 14.08-1.92 16.93-2.9299 0.13-6.45-0.22-8.58-2.4-0.27-2.55-1.29-4.99-1.23-7.55 1.17-3.81 3.17-7.8 7.38-8.81z"/>
	<path d="m594.17 910.16c1.98-2.81 4.23-5.52 7.07-7.5-12.86 19.03-25.56 38.29-35.61 58.99-18.42 37-29.08 77.48-34.63 118.29 0.16 7.67-0.57 15.34-0.3 23.01 0.77 6.17-0.49 12.47 0.96 18.58 1.08 15.28 3.48 30.45 6.27 45.53 4.16 25.33 10.29 50.29 16.9 75.09 2.34 9.47 5.31 18.83 7.27 28.37-3.67-5.63-5.45-12.23-8.33-18.26-18.23-44.73-32.19-91.84-34.72-140.25 0-11.36-0.18-22.72 0.1-34.07 1.09-4.0499 0.53-8.2799 1.41-12.34 4.85-42.23 20.44-82.99 43.33-118.72 10.25-12.11 19.95-24.67 30.28-36.72z"/>
	<path d="m986.26 958.32c1.5-3.92 5.53-6.59 9.73-6.35 5.52 0.04 10.4 3.9901 12.01 9.19 0.73 5.66-4.46 11.5-10.32 10.13-5-0.5-7.54-5.24-11.14-8.08-0.39 14.12 4.46 27.96 10.83 40.44 4.8 6.14 8.64 12.92 12.69 19.55-2.41-10.49-5.61-21.41-3.18-32.19 1.64-12.48 8.8-24.89 20.46-30.39-0.88 5.81-3.0599 11.41-3.36 17.32-0.03 4.67-0.18 9.35 0.09 14.03 2.2201 10.35 7.55 19.7 13.88 28.06 5.3 6.3199 10.46 12.89 17.19 17.79 4.36 4.37 9.36 8 14.13 11.9 14.7 10.4 22.13 28.64 22.74 46.23 0.3199 1.4601-0.75 2.39-1.72 3.26-2.1001-2.3999-2.8201-5.52-4.05-8.37-4.14-10.52-9.35-20.75-16.5-29.55-3.9299-3.79-6.75-8.5801-11.07-11.98-4.6001-3.1901-7.9601-7.8701-12.92-10.6 5.63 19.99 17.4 37.96 32.53 52.05 4.2899 3.4 8.46 6.9399 12.82 10.27-0.25 1.2899-0.47 2.6-0.6699 3.9199 4.1899 4.42 9.5399 7.51 14.21 11.4 5.73 5.3101 12.26 9.72 17.65 15.41 5.74 4.04 9.98 9.86 16.03 13.54-1.35-2.3-3.49-3.9401-5.38-5.7301 0.2401-0.7599 0.4901-1.49 0.77-2.22-0.4199 0.17-1.26 0.49-1.6799 0.66-0.1901-1.46 0.25-3.12-0.6801-4.34-5.2899-8.05-9.48-16.9-11.62-26.31-1.83-7.54-2.73-15.57-0.61-23.14 1.87-8.25 6.47-15.77 12.66-21.48 5.88-5.34 13.47-8.49 21.26-9.7 13.7-0.52 27.44 10.02 28.95 23.96-0.9 5.28-2.83 11.55-8.33 13.66-5.8301 3.1699-12.72-0.5701-17.12-4.6 3.1499 1.0399 6.22 2.4099 9.51 2.97 4.5499 0.03 8.6899-3.4601 9-8.0701 0.36-4.98-3.42-9.0599-6.8201-12.23-4.91-4.52-13.43-6.16-18.5-1-5.78 4.49-8.51 11.89-8.6899 19.03 1.89 6.6899 5.71 12.6 8.01 19.13 1.4199 3.48 0.98 7.3199 0.84 10.99-1.9401 7.49-6.75 14.58-5.23 22.63 0.08 6.9399 4.1699 12.75 6.86 18.88 4.74 9.41 12.51 16.78 19.17 24.79-1.8199-8.8301-6.48-16.76-8.21-25.59-1.46-6.7899-0.22-14.42 4.39-19.77 7.02-6.24 17-6.1 25.23-9.85 1.61 6.67 4.01 13.17 4.85 20.02-0.46 3.84-1.7999 7.67-4.25 10.73-5.1399 4.79-12.47 6.4601-17.27 11.64-3.0801 4.74-4.9401 11.38-2.4301 16.67 11.47 14.66 20.58 30.97 30.02 46.96-1.23-0.02-2.4401-0.03-3.64-0.02-4.28-9.1699-9.51-17.86-14.98-26.35-3.9301-5.98-7.54-12.27-13.14-16.88-13.42-10.43-26.76-21.2-41.81-29.26-2.0399-1.12-4.0499-2.33-5.6-4.08-0.4 0.02-1.21 0.0699-1.61 0.09-7.14-5.5699-15.54-9.1899-23.68-12.98-29.15-13.57-60.86-22.61-93.14-23.03-15.36 0.02-30.64 1.92-45.66 5.17-1.53 0.49-3.78-0.1801-4.44 1.73-0.81 1.71-1.31 3.83-3.31 4.54-3 2.1899-6.75 0.6799-9.7-0.78-10.68 8.27-21.21 17.11-33.75 22.48-9.28 3.47-14.28 12.64-19.64 20.34-1.54 1.9601-0.79 4.61-0.94 6.92-1.39 1.46-3.43 1.97-4.89 3.23-5.2401 8.4401-7.84 18.17-9.1801 27.93-0.48-0.29-1.45-0.87-1.94-1.17 0.01 3.4301 0.04 6.87-0.04 10.31-0.83-0.42-1.64-0.8301-2.44-1.2301 0.79-3.7 0.54-7.51 0.5-11.25-11.1 11.82-28.5 14.83-43.98 13.32-3.12 0.13-6.2-0.24-9.15-1.28 3.05-7.4299 5.31-15.28 9.73-22.06 4.33-7.2101 10.75-13.7 19.06-15.98 5.41-1.5599 11.02-2.8199 16.69-2.6899-2.48 4.6899-8.4901 4.24-11.78 7.9299 8.98 0.89 18.47-1.24 25.59-6.96-3.83-0.04-7.66 0.78-11.44-0.2 0.78-1.5901 2.88-0.91 4.29-1.16 2.98 0 5.97-0.03 8.95 0.22 0.73-1.5599 1.45-3.11 2.2-4.64 1.77-0.73 3.59-1.2899 5.53-1.37 3.33-5.7 7.97-10.46 11.61-15.94-4.8 0.39-9.49 1.4399-14.33 1.48-5.01 0.8-10.01-0.4301-15.03-0.39-19.01-2.15-37.15-9.5-53.38-19.48-3.94-2.27-7.74-4.75-11.61-7.12 13.99-10.06 27.48-21.43 43.76-27.66 5.54-2.23 11.35-3.7899 17.26-4.65 5.02-0.13 10.06-0.09 15.09-0.0299 21.41 2.84 41.22 12.11 60.33 21.69 1.86 1.28 3.13-1.21 4.78-1.7 1.56-0.12 3.14-0.11 4.73 0.0399 2.68 0.16 4.13 3.89 7.03 2.9 9.1-2.47 18.37-4.5499 27.77-5.23 6.36-1.48 12.96-0.09 19.37-1.33 4.64 0.4299 9.3 0.83 14 0.6 38.3 3.08 75.17 17.22 107.93 37.01 14.75 8.78 28.77 18.74 42.29 29.3-4.5701-7.12-10.36-13.36-15.84-19.76-2.61-3.7001-6.1499-6.5601-9.1399-9.89-4.55-6.02-10.15-11.21-15.99-15.95-10.86-11.01-23.07-20.56-35.4-29.85-2.9301 0.67-5.35 2.89-8.28 3.72-7.22 2.99-15.05 2.49-22.68 2.36-9.7999-1.48-19.64-4.3199-27.9-9.98-4.26-3.01-8.21-6.4399-11.78-10.23-16.69-15.26-36.13-29.85-59.31-32.51-11.5-0.78-22.64 3.16-33.18 7.36 1.81-4.47 4.22-8.73 7.9399-11.88 5.91-6.95 14.7-10.58 23.4-12.6 7.5-1.88 15.29-0.96 22.94-1.1 2.53-0.16 4.95 0.63 7.43 1.05-0.88-1.14-2.26-1.5701-3.5-2.05-4.73-1.75-9.54-3.42-13.76-6.22-3.81-2.41-8-4.23-12.43-5.0901 0.32-0.85 0.67-1.6799 1.04-2.49-11.48-9.8099-21.13-21.86-27.2-35.77-3.48-7.42-5.65-15.34-7.59-23.27 23.69 2.8 47.63 11.06 65.36 27.57 0.39 0.16 1.19 0.49 1.59 0.66-3.63-9.48-6.9-19.21-7.93-29.34-0.3597-3.6495 0.6703-7.1795 1.1903-10.74m15.46 76.36c4.85 7.5299 10.21 14.74 16.01 21.56 3.66 3.38 6.24 7.73 10 11.03 2.8301 3.1899 6.4301 5.52 9.46 8.5 14.17 13.07 31.18 22.52 48.22 31.3-2.86-5.09-6.8401-9.48-10.27-14.2-5.41-6.26-10.34-12.94-16.37-18.63-15.99-17.03-36.52-28.9-57.05-39.56m5.85 41.18c4.59 5.67 10.58 9.87 16.43 14.12 15.34 10.41 33.02 17.71 51.45 20.12-4.2-5.08-9.8099-8.65-15.04-12.54-8.89-6.7101-18.82-12.2-29.48-15.5-7.6401-2.6001-15.54-4.2901-23.36-6.2001m-120.85 36.6c4.58 3.4601 10.1 5.3101 15.37 7.4401 10.01 3.13 20.62 5.0399 31.12 3.72-0.1-0.3099-0.3-0.95-0.4-1.26-8.31-3.86-16.76-7.84-25.88-9.2999-6.7301-0.7002-13.46-1.3202-20.21-0.6002m4.49 12.79c-7.3 1.54-14.73 2.95-21.73 5.54 4.3 1.7899 8.97 2.4099 13.54 3.1799 10.65 2.01 21.58 0.67 32.36 1.0701-1.9 3.1-5.74 3.12-8.68 4.61-5.34 2.5399-10.31 5.7999-15.04 9.34 15.02 1.0601 31.14-3.45 41.97-14.26-5.36-0.54-10.81 2.14-15.96 0.1 2.32-2.38 5.99-2.1499 8.97-3.1799 2.91-1.05 6.45-0.9401 8.71-3.3101-8.47-1.39-16.87-3.4199-25.48-3.6-6.2-1.3001-12.46 0.0799-18.66 0.51m-43.6 77.91c12.11-1.61 23.14-8.88 30.71-18.32-11.93 2.3101-23.16 8.73-30.71 18.32m15.9 4.25c7.41-3.8301 13.31-10.77 15.78-18.75-7.71 3.23-13.84 10.61-15.78 18.75z"/>
	<path d="m1835 956.88c18.17 3.97 37.49 10.64 49.01 26.14 5.23 10.1-1.85 23.57-12.5 26.43-4.83 1.74-9.9199-0.57-13.52-3.78 0.4301-0.33 1.28-0.99 1.7101-1.32-2.36 1.65-3.3-1.5099-3.8201-3.22-3.9199-10.55 5.92-23.02 17.04-21.94 2.21 0.34 4.36 1.07 6.55 1.65-5.25-5.82-11.94-10.06-19.03-13.28-8.03-4.24-16.99-6.04-25.54-8.87 0.02-0.45 0.0701-1.36 0.1-1.81z"/>
	<path d="m1388.2 991.2c0.63 0.62 0.63 0.62 0 0z"/>
	<path d="m1125.4 998.42c8.85-1.7 18.45-0.79 26.31 3.9 11.35 5.45 17.91 19.78 13.34 31.71-1.98 3.0399-5.08 6.0699-8.97 6-6.5901-0.7001-12-6.04-13.87-12.23 3.1 2.6599 5.46 6.6799 9.9199 7.11 3.76 0.0699 6.29-3.5601 6.9501-6.99-1.1001-7.42-6.64-14.12-14.01-16-5.98-2.25-12.46-0.41-18.06 2.03-6.1599 3.15-11.76 7.8-15.15 13.91-7.3199 14.6-8.9099 31.57-6.24 47.54 2.49 15.81 8.5601 30.87 16.09 44.93 2.5199 4.16 5.11 8.37 6.5499 13.06-11.14-11.65-18.42-26.55-24.02-41.55-5.5399-15.76-10.11-32.46-7.6899-49.27 1.6-11.21 4.49-22.62 11.15-31.98 4.0099-6.17 10.64-10.34 17.7-12.17z"/>
	<path d="m927.75 1026.7c5.68-1.6699 11.49 0.14 17.22 0.4401 4.46 0.7999 8.97 1.1599 13.41 2.1699-0.86 0.4401-1.72 0.8501-2.59 1.2301-4.27-0.79-8.46-1.92-12.75-2.55-5.22-0.12-10.46-0.16-15.67 0.05 2.97 2.8799 7.53 4.59 8.65 9 1.69 2.87 0.06 5.95-1.21 8.6599-3.38 3.0901-8.86 3.6801-12.71 1.1801-5.7-2.97-7.61-11.37-3.63-16.46 2.72-2.0001 5.93-3.3 9.28-3.72z"/>
	<path d="m1554.8 1030.1c12.09-0.61 24.09 1.04 36.17 1.02 20.55 3.48 40.88 9.09 59.74 18.1 27.61 12.82 51.77 32.63 70.52 56.52 18.25 22.8 31.64 49.02 43.17 75.71 3.71 10.07 8.1699 19.93 10.46 30.46-17.08-33.69-36.31-66.43-59.27-96.48-8.25-10.65-17.48-20.5-27.45-29.56-14.77-11.5-31.05-20.92-47.76-29.29-21.01-10.15-43.39-17.55-66.38-21.58-6.22-1.54-12.66-1.6899-18.85-3.24-0.08-0.4201-0.26-1.25-0.3499-1.66z"/>
	<path d="m967.98 1150c17.92-8.23 37.3-13.21 56.93-14.91 6.0399-0.13 12.1-0.0599 18.15-0.0699 17.51 1.22 34.91 4.71 51.52 10.47 7.3101 3.6 15.17 6.15 22 10.67-4.5299-0.36-8.62-2.6-12.96-3.79-24.15-7.34-49.37-11.31-74.63-10.38-6.03-0.6699-11.87 1.14-17.87 1.12-19.58 4.2001-38.57 10.92-56.68 19.42-11.82 5.23-23.16 11.54-34.71 17.26 14.84-11.75 30.96-22.03 48.25-29.79z"/>
	<path d="m1015.4 1179.4c13.53-10.72 32.68-8.5801 47.66-2.3101 7 0.29 13.86-2.58 20.94-2.11 7.98 0.28 16.07-0.72 23.95 0.97 20.78 3 40.25 12.56 56.82 25.25 14.27 10.68 26.04 24.32 35.82 39.16 2.0701 3.34 4.86 6.75 4.42 10.96-2.53-2.11-3.6801-5.2899-5.53-7.9099-8.24-12.45-17.74-24.13-28.9-34.07-14.11-12.15-30.2-22.56-48.26-27.68-9.1799-2.9-18.78-3.65-28.26-4.7001-8.87-0.35-17.59 1.34-26.37 2.2001 8.3201 15.1 5.8601 35.71-7.0399 47.48-8.0801 5.48-16.69 10.41-23.51 17.5-6.8 5.9-12.12 13.58-14.87 22.19-3.41 11.03 0.39 22.5 3.9199 32.99-3.46-0.97-5.4199-4.2899-7.97-6.5699-5.37-4.8-8.38-11.55-10.74-18.2-3.17-10.26-3.51-21.38-0.54-31.72-2.26 3.1801-3.53 6.99-6.12 9.97-2.31 3.41-5.42 6.39-6.66 10.41-3.79 8.49-5.02 17.87-5.17 27.09 2.68-2.0399 4.48-5.7999 8.24-5.83 6.1-0.73 11.53 5.66 9.88 11.58-0.21 2.7101-3.05 3.9501-5.28 4.75-6.35 1.3-12.5-3.99-13.51-10.13-1.32-9.83 1.55-19.6 4.61-28.85-8.72 6.5-19 10.66-29.72 12.38-4.99 1.3101-10.2 0.3201-15.22 1.3401-3.35-0.4701-6.71-0.7001-10.08-0.64 2.43-16.39 10.08-32.31 22.97-42.98 1.57-1.0199 2.98-2.2599 4.19-3.6699-6.32-0.67-12.7 0.0499-19.02-0.4401-7.36-1.3999-16.08-2.61-20.66-9.2799-0.73-2.42-1.59-5.1101-0.4-7.52 0.79-3.39 4.69-5.01 7.86-4.99 3.67 1.1699 7.58 3.46 8.71 7.4099 0.99 2.0801-0.03 4.3201-0.84 6.29-1.88 1.99-4.71 2.63-7.04 3.9401 10.29 4.0199 21.43 3.5399 32.26 3.2699 7.22-1.36 14.05-4.23 21.24-5.6699-8.54-0.99-17.21-1.87-25.21-5.27-7.61-2.6801-14.15-7.61-20.19-12.8-3.36-4.22-6.75-8.45-9.0099-13.39 9.52 4.88 19.07 10.89 30.04 11.45 2.47 0.52 5.05 0.83 7.54 0.12 17.18-1.2601 32.2-11.19 45.05-21.97m9.55 3.54c-7.9299 3.7101-15.74 8.04-22.29 13.86 3.13 0.1101 6.26-0.1499 9.35-0.72 17.81 0.11 34.89-7.75 48.33-19.11-11.91 1.0701-24.16 1.37-35.39 5.97m11.71 11.79c-15.89 8.49-28.04 22.25-38.76 36.41 19.79-5.9501 39.21-15.48 53.36-30.88 2.11-2.2101 4.46-4.2101 6.21-6.73 2.67-3.5701 6.0601-6.7101 7.9-10.83-9.8299 3.3301-19.53 7.2001-28.71 12.03m10.15 16.08c-5.63 7.91-8.86 17.23-11.37 26.52 5.4501-2.5599 9.4601-7.15 14.29-10.61 1.89-1.8199 3.08-4.23 5.02-6.01 7.17-8.64 11.19-19.38 13.97-30.13-7.8599 6.05-16.29 11.87-21.91 20.23z"/>
	<path d="m781.73 1199.7c6.75-6.6 19.29-4.4299 23.61 3.92 4.43 7.58 1.09 17.96-6.15 22.5-3.55 2.1899-7.88 1.9301-11.82 2.63-0.37-0.24-1.1-0.72-1.47-0.96 0.2599-0.9401 0.54-1.8501 0.84-2.75-2.36-1.52-5.08-2.76-6.57-5.24-4.91-5.73-4.28-15.24 1.56-20.1z"/>
	<path d="m874.99 1216.7c2.66 3.36 3.1 7.98 6.2 11.05 4.42 4.39 10.53 6.98 16.72 7.25 3.27-0.73 6.56-1.79 9.26-3.85 2.2-2.88 0.64-7.88-3.2-8.3201-2.5 0.4401-2.8799 3.52-4.36 5.15-0.73-2.24 0.15-4.29 1.52-6.02 1.86 0.03 3.73 0.04 5.61 0.05 1.97 2.13 4.3 5.35 2.68 8.3199-1.23 3.14-4.64 4.4301-7.54 5.55-4.26-0.04-8.77 0.74-12.74-1.17-7.42-2.8598-14-9.7598-14.15-18.01z"/>
	<path d="m1112.9 1233.2c13.52-2.35 25.34-10.88 39.13-12.24 16.38 0.59 30.72 10.95 40.3 23.66 8.9401 11.81 13.94 26.4 24.58 36.94 0.0399 0.35 0.11 1.0601 0.14 1.41-4.1901-2.3101-7.24-6.24-11.22-8.86-7.75-6.12-18.28-8.7201-27.91-6.41-9.2101 0.89-18.65 4.09-27.8 1.14-8.34-2.02-15.99-7.0601-20.89-14.1-4.71-5.41-8.08-11.85-12.96-17.12-1.29-1.35-2.32-2.9099-3.37-4.4199m22.78 5.37c15.29 1.05 31.5 2.36 44.77 10.89 7.64 4.16 14.01 10.14 20.61 15.7-14.18-20.53-41.1-30.3-65.38-26.59z"/>
	<path d="m870.56 1225.1c0.74-0.9 1.5-1.77 2.27-2.63 0.45 15.52 10.83 31.61 26.56 35.11 7.44 1.3601 15.8 0.67 21.88-4.2599 3.48-2.9401 3.99-8.92 0.55-12.09-1.31-1.6799-3.31-2.9299-5.47-2.12-1.25 1.12-2.9 2.16-3.39 3.84 0.71 1.8101 1.57 3.5701 2.22 5.4401-1.41-1.14-3.08-2.27-3.47-4.13-1.33-2.66 0.78-5.38 2.58-7.1899 5.42-1.3 10.79 2.5299 11.88 7.8799 1.68 4.9601-2.17 9.5801-6.16 12.05-8.56 4.83-19.47 4.49-28.18 0.2-11.93-6.1901-19.86-18.83-21.27-32.1z"/>
	<path d="m1203.3 1235.7c2.38 4.34 3.7001 9.1899 6.41 13.36-0.63 0-1.9 0-2.53-0.01-1.8099-3.04-3.35-6.22-4.9199-9.36-1.0701-1.44 0.4199-2.79 1.0399-3.99z"/>
	<path d="m1204.7 1252.3c2.04-0.24 4.0901-0.6 6.01-1.3999 6.8101 19.19 13.38 38.73 15.4 59.09 1.63 8.22 0.39 16.71 1.87 24.95-1.25 5.17-0.6 10.51-1.0699 15.78-0.8 0.6801-1.6901 1.22-2.66 1.61 1.4-9.75 0.55-19.65 0.72-29.46-1.1699-7.41-1-14.94-2.62-22.29-1.25-5.65-1.61-11.71-4.59-16.78 0.4299-3.83-1.4401-7.37-2.72-10.85-2.6901-7.2401-6.62-13.92-10.34-20.65z"/>
	<path d="m562.09 1271.2c3.26 0.1401-1.5 3.0101 0 0z"/>
</svg>
